<svg version="1.1" id="Layer_1" xmlns="http://www.w3.org/2000/svg" xmlns:xlink="http://www.w3.org/1999/xlink" x="0px" y="0px"
	 width="100%" viewBox="0 0 120 115" enable-background="new 0 0 120 115" xml:space="preserve">
<path fill="#FBFBFB" opacity="1.000000" stroke="none" 
	d="
M42.000000,116.000000 
	C28.361454,116.000000 14.722910,116.000000 1.042182,116.000000 
	C1.042182,77.773705 1.042182,39.547352 1.042182,1.000000 
	C19.686337,1.000000 38.374508,1.000000 57.582703,1.400481 
	C57.780964,4.533966 57.459213,7.266969 56.764229,10.005232 
	C55.582504,10.711080 54.774006,11.411667 53.717018,12.027770 
	C53.016323,11.797251 52.564117,11.651216 52.095306,11.112092 
	C47.154907,4.307703 35.453930,1.507248 24.789255,4.990986 
	C27.701757,8.620467 30.326998,11.891970 33.017128,15.477343 
	C34.049095,17.166645 35.016174,18.542074 35.519981,19.983202 
	C30.769655,19.960978 26.444071,19.470449 22.204252,19.876175 
	C15.231508,20.543425 8.240235,21.622694 3.310802,27.976582 
	C0.960118,30.782745 3.346903,30.666052 5.070460,31.373127 
	C8.592249,34.015442 12.015350,36.332306 15.536992,38.715862 
	C13.392997,40.743484 11.159141,42.856087 8.625344,45.123489 
	C6.565729,48.419739 4.609139,51.470226 3.103665,54.729111 
	C1.695264,57.777863 2.699898,59.758518 6.359702,60.042881 
	C9.688822,60.301548 13.001217,60.775486 16.287121,61.143654 
	C16.253258,61.132778 16.187483,61.105686 16.094547,61.479919 
	C14.841617,66.567947 13.681623,71.281731 12.369062,76.373886 
	C12.167097,77.834549 12.117699,78.916832 11.964370,80.434639 
	C12.643468,85.168953 13.426495,89.467751 14.276324,94.164047 
	C19.071472,105.605438 27.373405,112.189659 39.129013,114.542633 
	C40.142635,114.745514 41.045624,115.501129 42.000000,116.000000 
z"/>
<path fill="#FCFCFD" opacity="1.000000" stroke="none" 
	d="
M61.000000,1.000000 
	C80.922256,1.000000 100.844513,1.000000 121.000000,1.000000 
	C121.000000,18.353531 121.000000,35.708107 120.647934,53.471954 
	C118.219009,50.480648 116.142159,47.080070 113.988106,43.426762 
	C113.359062,42.762112 112.807220,42.350193 112.060318,41.638237 
	C108.910034,40.178429 105.954796,39.018646 102.902328,37.577110 
	C102.224800,37.193924 101.644501,37.092487 100.955315,36.626526 
	C101.145149,35.296509 101.142418,33.959579 101.794930,33.429996 
	C104.580177,31.169476 107.558998,29.147465 111.050476,26.615442 
	C109.213486,25.478579 108.140396,24.814465 106.700317,23.976204 
	C100.405548,21.441151 94.346222,21.429939 88.016953,22.531189 
	C85.920761,22.681183 84.017891,23.087557 82.095726,23.155663 
	C81.970383,22.168125 81.864334,21.518856 81.767494,20.925989 
	C80.554604,21.397539 79.715271,21.723856 78.620605,21.813156 
	C74.887947,14.659981 71.596420,7.592518 63.949085,3.683200 
	C62.901363,2.582057 61.950680,1.791028 61.000000,1.000000 
M80.176460,12.996460 
	C80.766823,12.619295 81.357178,12.242130 81.947540,11.864966 
	C81.320396,11.324729 80.693245,10.784492 80.066101,10.244254 
	C79.912445,11.036455 79.758789,11.828655 80.176460,12.996460 
z"/>
<path fill="#FDFDFD" opacity="1.000000" stroke="none" 
	d="
M121.000000,56.000000 
	C121.000000,75.923615 121.000000,95.847221 121.000000,116.000000 
	C102.979752,116.000000 84.958534,116.000000 66.654846,115.655151 
	C77.298332,113.697746 87.086411,109.859604 94.864403,101.574753 
	C100.849815,95.199310 103.551323,83.043793 100.137329,75.592590 
	C103.996979,74.934235 107.870438,74.629982 112.561882,74.261475 
	C111.954552,71.310661 111.494148,69.073708 111.090790,66.462402 
	C110.067253,64.047485 108.986671,62.006912 108.092102,59.620964 
	C111.511162,58.479847 114.744217,57.684105 118.297501,56.895035 
	C119.411827,56.601139 120.205917,56.300571 121.000000,56.000000 
z"/>
<path fill="#36373F" opacity="1.000000" stroke="none" 
	d="
M100.151146,75.946678 
	C103.551323,83.043793 100.849815,95.199310 94.864403,101.574753 
	C87.086411,109.859604 77.298332,113.697746 66.186188,115.655151 
	C58.312424,116.000000 50.624847,116.000000 42.468636,116.000000 
	C41.045624,115.501129 40.142635,114.745514 39.129013,114.542633 
	C27.373405,112.189659 19.071472,105.605438 14.744278,94.233162 
	C15.459782,93.928474 15.774134,93.952171 16.210846,94.278999 
	C17.545500,96.375496 18.757795,98.168869 20.094555,100.233078 
	C20.808573,101.018021 21.398121,101.532127 21.994753,102.022293 
	C22.001837,101.998360 21.954519,102.014297 22.118498,102.274933 
	C22.850149,102.702515 23.417820,102.869461 23.985069,103.015793 
	C23.984644,102.995186 23.961958,103.030693 23.964787,103.392273 
	C25.303230,104.513863 26.638847,105.273865 27.985445,106.017540 
	C27.996426,106.001221 27.969664,106.035568 27.973530,106.382225 
	C30.297226,108.188713 32.617054,109.648544 35.216923,111.385017 
	C44.412918,112.136116 53.328873,112.610580 62.403568,113.100487 
	C62.562309,113.115936 62.878998,113.077728 63.314957,113.060745 
	C69.913300,111.328667 76.363121,110.257858 82.140701,107.680260 
	C86.241745,105.850624 89.435524,101.987419 93.029335,99.020393 
	C93.024422,99.008904 93.017776,99.024475 93.309509,98.945015 
	C93.891937,98.584732 94.182640,98.303917 94.678772,97.861755 
	C95.266495,96.952438 95.648796,96.204475 96.262978,95.214897 
	C96.637512,94.348228 96.780167,93.723167 97.076706,92.735794 
	C97.827034,86.913681 98.423492,81.453888 99.302811,75.983948 
	C99.774170,75.964767 99.962662,75.955719 100.151146,75.946678 
z"/>
<path fill="#474749" opacity="1.000000" stroke="none" 
	d="
M60.625000,1.000000 
	C61.950680,1.791028 62.901363,2.582057 63.533810,3.686393 
	C59.937450,3.607499 58.906227,5.276134 59.043865,8.303856 
	C59.162769,10.919593 59.017601,13.547332 58.731766,16.016956 
	C58.274742,15.522895 58.075130,15.181644 57.899879,14.488487 
	C57.661980,12.757711 57.399719,11.378841 57.137459,9.999971 
	C57.459213,7.266969 57.780964,4.533966 58.051361,1.400481 
	C58.750000,1.000000 59.500000,1.000000 60.625000,1.000000 
z"/>
<path fill="#3E3F40" opacity="1.000000" stroke="none" 
	d="
M121.000000,55.666672 
	C120.205917,56.300571 119.411827,56.601139 118.173508,56.675240 
	C117.453346,56.262169 117.177429,56.075569 116.935364,55.656372 
	C116.969231,55.423775 116.999886,54.954670 117.270401,54.750099 
	C117.056206,52.895035 116.604767,51.233833 116.078239,49.596783 
	C115.440414,47.613689 114.739128,45.651009 114.065308,43.679493 
	C116.142159,47.080070 118.219009,50.480648 120.647934,53.940613 
	C121.000000,54.444447 121.000000,54.888889 121.000000,55.666672 
z"/>
<path fill="#656565" opacity="1.000000" stroke="none" 
	d="
M113.988106,43.426762 
	C114.739128,45.651009 115.440414,47.613689 116.078239,49.596783 
	C116.604767,51.233833 117.056206,52.895035 117.213020,54.400681 
	C111.980286,49.637272 107.545326,49.035862 100.717606,52.098099 
	C100.635063,52.742271 100.819519,53.387951 101.005692,54.012657 
	C101.007393,53.991684 100.965561,53.996223 101.131683,54.275597 
	C102.198845,55.050743 103.099892,55.546524 104.001457,56.022289 
	C104.001984,56.002274 103.961250,56.009575 104.109467,56.300674 
	C105.473824,57.716629 106.689957,58.841484 107.906097,59.966343 
	C108.986671,62.006912 110.067253,64.047485 111.036606,66.731430 
	C110.884628,67.553162 110.843880,67.731522 110.475082,67.895805 
	C108.873955,66.861809 107.674049,65.729240 106.312859,64.844955 
	C103.305313,62.891129 100.254684,60.991859 97.104370,59.287025 
	C96.774994,59.108784 95.660172,60.381969 94.959335,61.285866 
	C95.338135,62.071842 95.667381,62.553688 96.002937,63.014408 
	C96.009247,62.993279 95.965363,62.988895 95.963913,63.301441 
	C96.304161,64.083549 96.645844,64.553108 96.995255,65.010757 
	C97.002968,64.998856 96.974625,64.999611 96.930611,65.398117 
	C96.914497,66.863777 96.942398,67.930931 96.681015,69.292542 
	C96.199295,77.683861 96.004433,85.839783 89.099129,91.646568 
	C84.719994,95.329056 80.442863,99.431458 74.186630,98.739853 
	C76.295906,95.058250 78.239876,91.679153 80.183846,88.300049 
	C78.213364,88.637436 77.093536,89.844284 75.895302,90.967499 
	C75.066376,91.744545 74.129250,92.406166 73.131912,92.760124 
	C71.667000,92.346016 70.284592,92.093613 68.958511,92.268463 
	C60.569973,93.374504 52.184208,95.145462 43.682861,91.519455 
	C41.279133,90.744614 39.073196,90.260139 36.949154,89.793655 
	C39.863220,94.521347 42.471439,98.752853 44.677277,102.944763 
	C43.648682,102.700905 43.035755,102.385635 42.394276,102.308823 
	C30.969084,100.940605 21.546505,96.511520 16.358986,85.477379 
	C16.215324,85.171806 15.476377,85.146088 15.009168,84.609497 
	C14.723866,82.798645 14.444410,81.368156 14.144829,79.554626 
	C14.172859,78.152069 14.221015,77.132553 14.481812,75.801445 
	C16.212234,70.126434 17.790277,64.778732 19.196409,59.386215 
	C19.474054,58.321442 19.089914,57.084099 19.071295,55.590607 
	C19.972281,54.455833 20.812941,53.656788 21.889290,52.633724 
	C15.803128,51.612118 11.258168,53.552074 8.625346,57.840317 
	C7.576152,57.581192 6.826211,57.323997 5.952592,56.836273 
	C5.552732,56.403877 5.276549,56.202019 5.002161,55.723640 
	C5.213159,54.954132 5.422361,54.461147 5.954520,53.862591 
	C6.503797,53.159084 6.730116,52.561142 6.960732,51.968952 
	C6.965030,51.974701 6.943690,51.952972 7.295862,51.943691 
	C9.418109,49.608288 11.188184,47.282162 12.978523,44.977257 
	C12.998788,44.998474 12.960130,44.958267 13.306473,44.942772 
	C14.422930,43.936275 15.193042,42.945274 15.981073,41.960716 
	C15.998993,41.967155 15.964926,41.977612 16.202904,41.883785 
	C16.625202,41.510586 16.809526,41.231209 16.994991,40.978256 
	C16.996132,41.004677 16.950371,40.978153 17.189243,40.983238 
	C17.614939,40.654411 17.801764,40.320492 18.210936,39.725601 
	C20.355473,38.604313 22.277664,37.743992 25.250502,36.413433 
	C21.198496,35.464130 18.184048,34.968700 15.315196,34.028854 
	C12.199791,33.008240 9.229996,31.547789 6.163104,30.366365 
	C5.893487,30.262506 5.374784,30.805258 4.971774,31.047676 
	C3.346903,30.666052 0.960118,30.782745 3.707839,27.955410 
	C6.924852,26.928940 9.420912,25.959892 12.369802,24.999283 
	C21.412857,24.515196 30.003082,24.022673 39.357674,23.486322 
	C37.640297,22.716761 36.816833,22.347763 35.984421,21.635174 
	C35.978069,20.833555 35.980659,20.375530 35.983253,19.917505 
	C35.016174,18.542074 34.049095,17.166645 33.085823,15.194092 
	C32.721592,13.201324 32.353554,11.805676 32.196850,10.046310 
	C35.288300,9.627554 38.200886,9.270597 41.042240,9.576109 
	C48.503517,10.378367 53.576603,15.514887 59.376740,19.956978 
	C60.334114,18.935963 61.355488,17.945257 61.391441,16.919994 
	C61.489868,14.113214 61.173561,11.291892 61.004025,8.153417 
	C67.431633,10.450924 72.756737,16.158175 74.944351,22.213297 
	C75.319885,23.252741 76.302170,24.072979 77.093628,25.198162 
	C77.350891,25.661839 77.583229,25.835463 77.921074,26.249306 
	C78.831306,27.039892 79.700554,27.503891 81.002594,27.977440 
	C82.243591,27.843819 83.056847,27.724384 83.859215,27.553785 
	C91.542458,25.920185 99.196709,23.136515 106.835884,27.328327 
	C101.749771,30.842724 96.837540,34.035374 91.744019,37.460541 
	C91.177818,38.219391 90.792900,38.745720 90.891479,38.610928 
	C96.434853,39.358040 101.953651,40.101841 107.582283,40.850132 
	C107.692116,40.854622 107.900169,40.925652 108.060455,41.188416 
	C108.586021,41.623463 108.951302,41.795746 109.684952,41.991333 
	C110.787338,41.989182 111.521355,41.963726 112.255371,41.938271 
	C112.807220,42.350193 113.359062,42.762112 113.988106,43.426762 
M51.064476,51.432781 
	C50.079163,49.642426 49.093849,47.852074 47.564209,45.441612 
	C42.221600,43.665550 37.546650,45.747841 34.364300,49.451530 
	C28.822351,55.901386 25.467813,63.199352 27.341791,72.430389 
	C29.715132,84.121216 34.483662,87.152412 45.801311,82.972984 
	C46.863800,82.580620 48.668934,82.768166 49.512970,83.449699 
	C54.645386,87.594032 60.257034,88.653572 66.600288,87.062653 
	C71.655907,85.794685 76.780067,84.790497 81.891922,83.759026 
	C86.630272,82.802917 88.047371,78.996857 88.532578,75.143822 
	C88.824089,72.828972 88.862137,69.414024 84.584312,68.264915 
	C76.323029,67.184479 68.061752,66.104042 59.173363,64.905266 
	C57.791248,63.950455 56.409134,62.995640 55.042534,61.196651 
	C55.494728,57.272545 53.550556,54.488293 50.852840,51.985828 
	C50.852840,51.985828 50.767635,52.151485 51.064476,51.432781 
z"/>
<path fill="#3B3B3E" opacity="1.000000" stroke="none" 
	d="
M5.631564,53.968159 
	C5.422361,54.461147 5.213159,54.954132 5.081819,55.984482 
	C5.465211,56.703495 5.770741,56.885147 6.076269,57.066803 
	C6.826211,57.323997 7.576152,57.581192 9.071547,57.891701 
	C12.881656,57.272125 15.946312,56.599236 19.010969,55.926342 
	C19.089914,57.084099 19.474054,58.321442 19.196409,59.386215 
	C17.790277,64.778732 16.212234,70.126434 14.189432,75.764450 
	C13.296818,76.024544 12.909224,76.010033 12.521629,75.995522 
	C13.681623,71.281731 14.841617,66.567947 16.198997,61.284027 
	C16.250616,60.602509 16.104849,60.491123 15.959082,60.379738 
	C15.914690,60.482063 15.804524,60.635612 15.837368,60.677788 
	C15.975270,60.854851 16.155960,60.998589 16.320984,61.154530 
	C13.001217,60.775486 9.688822,60.301548 6.359702,60.042881 
	C2.699898,59.758518 1.695264,57.777863 3.103665,54.729111 
	C4.609139,51.470226 6.565729,48.419739 8.931059,45.141869 
	C9.740578,45.016754 9.944441,45.028057 10.118816,45.392982 
	C9.040782,47.815388 7.992236,49.884182 6.943690,51.952972 
	C6.943690,51.952972 6.965030,51.974701 6.684498,52.114441 
	C6.146499,52.825508 5.889032,53.396835 5.631564,53.968159 
z"/>
<path fill="#7C7D78" opacity="1.000000" stroke="none" 
	d="
M58.991188,19.971523 
	C53.576603,15.514887 48.503517,10.378367 41.042240,9.576109 
	C38.200886,9.270597 35.288300,9.627554 31.835020,9.902973 
	C30.434502,8.739614 29.607143,7.355870 28.506222,5.514598 
	C30.399860,5.284277 31.455631,4.843242 32.293655,5.103458 
	C38.923145,7.161986 45.511150,9.354118 52.111908,11.505180 
	C52.564117,11.651216 53.016323,11.797251 53.843979,12.325355 
	C55.438118,13.418414 56.656818,14.129405 57.875519,14.840395 
	C58.075130,15.181644 58.274742,15.522895 58.735378,16.394638 
	C58.994663,17.940596 58.992924,18.956059 58.991188,19.971523 
z"/>
<path fill="#474747" opacity="1.000000" stroke="none" 
	d="
M10.148305,45.039364 
	C9.944441,45.028057 9.740578,45.016754 9.230999,44.987076 
	C11.159141,42.856087 13.392997,40.743484 15.536992,38.715862 
	C12.015350,36.332306 8.592249,34.015442 5.070461,31.373127 
	C5.374784,30.805258 5.893487,30.262506 6.163104,30.366365 
	C9.229996,31.547789 12.199791,33.008240 15.315196,34.028854 
	C18.184048,34.968700 21.198496,35.464130 25.250502,36.413433 
	C22.277664,37.743992 20.355473,38.604313 17.986492,39.831665 
	C17.249849,40.387886 17.053406,40.647705 16.950371,40.978153 
	C16.950371,40.978153 16.996132,41.004677 16.757099,41.076172 
	C16.333685,41.424316 16.149305,41.700966 15.964926,41.977612 
	C15.964926,41.977612 15.998993,41.967155 15.645505,41.998997 
	C14.514721,43.006649 13.737425,43.982456 12.960130,44.958267 
	C12.960130,44.958267 12.998788,44.998474 12.626154,44.943489 
	C11.551782,44.938793 10.850043,44.989079 10.148305,45.039364 
z"/>
<path fill="#404141" opacity="1.000000" stroke="none" 
	d="
M52.095306,11.112091 
	C45.511150,9.354118 38.923145,7.161986 32.293655,5.103458 
	C31.455631,4.843242 30.399860,5.284277 28.506222,5.514598 
	C29.607143,7.355870 30.434502,8.739614 31.623688,10.266693 
	C32.353554,11.805676 32.721592,13.201324 33.020935,14.880221 
	C30.326998,11.891970 27.701757,8.620467 24.789255,4.990986 
	C35.453930,1.507248 47.154907,4.307703 52.095306,11.112091 
z"/>
<path fill="#3D3D3B" opacity="1.000000" stroke="none" 
	d="
M11.916972,24.990845 
	C9.420912,25.959892 6.924852,26.928940 4.031754,27.919159 
	C8.240235,21.622694 15.231508,20.543425 22.204252,19.876175 
	C26.444071,19.470449 30.769655,19.960978 35.519981,19.983202 
	C35.980659,20.375530 35.978069,20.833555 35.516972,21.636723 
	C32.236263,21.918995 29.353085,21.458662 26.605211,21.880245 
	C21.666307,22.637981 16.808603,23.924982 11.916972,24.990845 
z"/>
<path fill="#3B3B3E" opacity="1.000000" stroke="none" 
	d="
M14.164955,79.937668 
	C14.444410,81.368156 14.723866,82.798645 14.996614,85.028442 
	C15.356101,88.543793 15.722294,91.259834 16.088486,93.975876 
	C15.774134,93.952171 15.459782,93.928474 14.677477,93.835663 
	C13.426495,89.467751 12.643468,85.168953 12.313334,80.434357 
	C13.232469,79.978264 13.698711,79.957962 14.164955,79.937668 
z"/>
<path fill="#FBFBFB" opacity="1.000000" stroke="none" 
	d="
M57.899879,14.488488 
	C56.656818,14.129405 55.438118,13.418414 54.092464,12.409839 
	C54.774006,11.411667 55.582504,10.711080 56.764229,10.005232 
	C57.399719,11.378841 57.661980,12.757711 57.899879,14.488488 
z"/>
<path fill="#36373F" opacity="1.000000" stroke="none" 
	d="
M14.144829,79.554619 
	C13.698711,79.957962 13.232469,79.978264 12.417263,79.998840 
	C12.117699,78.916832 12.167097,77.834549 12.369062,76.373886 
	C12.909224,76.010033 13.296818,76.024544 13.976791,76.076050 
	C14.221015,77.132553 14.172859,78.152069 14.144829,79.554619 
z"/>
<path fill="#777874" opacity="1.000000" stroke="none" 
	d="
M59.376740,19.956978 
	C58.992924,18.956059 58.994663,17.940596 58.992786,16.547447 
	C59.017601,13.547332 59.162769,10.919593 59.043865,8.303856 
	C58.906227,5.276134 59.937450,3.607499 63.630852,3.996509 
	C71.596420,7.592518 74.887947,14.659981 78.610664,22.057062 
	C78.856056,22.537985 78.840790,23.026014 78.532104,23.067640 
	C77.813591,23.741398 77.403778,24.373528 76.996689,25.003105 
	C76.999420,25.000551 77.004166,24.994478 77.004166,24.994478 
	C76.302170,24.072979 75.319885,23.252741 74.944351,22.213297 
	C72.756737,16.158175 67.431633,10.450924 61.004025,8.153417 
	C61.173561,11.291892 61.489868,14.113214 61.391441,16.919994 
	C61.355488,17.945257 60.334114,18.935963 59.376740,19.956978 
z"/>
<path fill="#787876" opacity="1.000000" stroke="none" 
	d="
M107.009758,27.006577 
	C99.196709,23.136515 91.542458,25.920185 83.859215,27.553785 
	C83.056847,27.724384 82.243591,27.843819 81.243210,27.693024 
	C83.437439,25.861897 85.823860,24.324732 88.210274,22.787569 
	C94.346222,21.429939 100.405548,21.441151 106.677780,24.333311 
	C107.018059,25.578571 107.013908,26.292574 107.009758,27.006577 
z"/>
<path fill="#3C3C3E" opacity="1.000000" stroke="none" 
	d="
M106.835884,27.328327 
	C107.013908,26.292574 107.018059,25.578571 107.044754,24.507462 
	C108.140396,24.814465 109.213486,25.478579 111.050476,26.615442 
	C107.558998,29.147465 104.580177,31.169476 101.794930,33.429996 
	C101.142418,33.959579 101.145149,35.296509 100.500961,36.664917 
	C97.412102,37.121235 94.668701,37.174629 91.925308,37.228027 
	C96.837540,34.035374 101.749771,30.842724 106.835884,27.328327 
z"/>
<path fill="#373738" opacity="1.000000" stroke="none" 
	d="
M88.016953,22.531189 
	C85.823860,24.324732 83.437439,25.861897 80.810417,27.683474 
	C79.700554,27.503891 78.831306,27.039892 77.925453,26.030291 
	C77.888855,25.484686 77.827179,25.049482 78.005745,24.786003 
	C78.535439,24.290302 78.886559,24.058083 79.540588,23.830530 
	C80.600677,23.721443 81.357849,23.607687 82.115021,23.493931 
	C84.017891,23.087557 85.920761,22.681183 88.016953,22.531189 
z"/>
<path fill="#797B77" opacity="1.000000" stroke="none" 
	d="
M91.744019,37.460545 
	C94.668701,37.174629 97.412102,37.121235 100.609848,37.029446 
	C101.644501,37.092487 102.224800,37.193924 103.110703,37.838066 
	C104.768356,39.202396 106.120407,40.024021 107.472450,40.845642 
	C101.953651,40.101841 96.434853,39.358040 90.891479,38.610928 
	C90.792900,38.745720 91.177818,38.219391 91.744019,37.460545 
z"/>
<path fill="#3E3F40" opacity="1.000000" stroke="none" 
	d="
M107.582283,40.850132 
	C106.120407,40.024021 104.768356,39.202396 103.207932,38.119820 
	C105.954796,39.018646 108.910034,40.178429 112.060318,41.638237 
	C111.521355,41.963726 110.787338,41.989182 109.491402,41.761360 
	C108.586372,41.313938 108.243271,41.119797 107.900169,40.925652 
	C107.900169,40.925652 107.692116,40.854622 107.582283,40.850132 
z"/>
<path fill="#F5F5F6" opacity="1.000000" stroke="none" 
	d="
M79.890800,12.808658 
	C79.758789,11.828655 79.912445,11.036455 80.066101,10.244255 
	C80.693245,10.784492 81.320396,11.324729 81.947540,11.864965 
	C81.357178,12.242130 80.766823,12.619295 79.890800,12.808658 
z"/>
<path fill="#F5F5F6" opacity="1.000000" stroke="none" 
	d="
M82.095726,23.155663 
	C81.357849,23.607687 80.600677,23.721443 79.482986,23.609917 
	C79.122467,23.384636 78.840790,23.026014 78.840790,23.026014 
	C78.840790,23.026014 78.856056,22.537985 78.865997,22.294079 
	C79.715271,21.723856 80.554604,21.397539 81.767494,20.925989 
	C81.864334,21.518856 81.970383,22.168125 82.095726,23.155663 
z"/>
<path fill="#323235" opacity="1.000000" stroke="none" 
	d="
M108.092102,59.620964 
	C106.689957,58.841484 105.473824,57.716629 104.575851,56.291504 
	C108.896523,55.957150 112.899010,55.923061 116.901505,55.888969 
	C117.177429,56.075569 117.453346,56.262169 117.853271,56.668568 
	C114.744217,57.684105 111.511162,58.479847 108.092102,59.620964 
z"/>
<path fill="#313135" opacity="1.000000" stroke="none" 
	d="
M110.803139,67.909874 
	C110.843880,67.731522 110.884628,67.553162 110.979568,67.105774 
	C111.494148,69.073708 111.954552,71.310661 112.561882,74.261475 
	C107.870438,74.629982 103.996979,74.934235 100.137329,75.592590 
	C99.962662,75.955719 99.774170,75.964767 99.286339,75.584030 
	C98.987625,74.126671 98.988251,73.059097 99.411316,71.983154 
	C101.899628,72.309418 103.956062,72.728653 106.033417,72.960175 
	C109.786369,73.378418 111.676277,71.918839 110.803139,67.909874 
z"/>
<path fill="#535457" opacity="1.000000" stroke="none" 
	d="
M98.988876,71.991524 
	C98.988251,73.059097 98.987625,74.126671 99.003464,75.594162 
	C98.423492,81.453888 97.827034,86.913681 96.808128,92.930656 
	C96.267487,94.144058 96.149292,94.800278 96.031097,95.456505 
	C95.648796,96.204475 95.266495,96.952438 94.360916,97.909241 
	C93.564346,98.420212 93.291061,98.722343 93.017776,99.024475 
	C93.017776,99.024475 93.024422,99.008904 92.672775,99.028290 
	C84.162277,104.270363 75.979721,109.388130 66.025360,110.611610 
	C64.892647,110.750839 63.923817,112.223412 62.878998,113.077728 
	C62.878998,113.077728 62.562309,113.115936 62.190941,112.817154 
	C60.885666,111.695236 59.951763,110.872101 59.312355,110.007492 
	C60.092358,109.665199 60.577877,109.364372 61.319828,108.948776 
	C62.054176,108.553322 62.532093,108.272629 63.376831,107.991112 
	C64.926041,107.415352 66.108429,106.840424 67.600250,106.161240 
	C69.013130,104.798676 70.116570,103.540359 71.520187,102.157890 
	C72.554008,101.036606 73.287666,100.039482 74.021317,99.042351 
	C80.442863,99.431458 84.719994,95.329056 89.099129,91.646568 
	C96.004433,85.839783 96.199295,77.683861 96.938354,69.478249 
	C97.993401,70.252373 98.501823,71.135254 99.006248,72.010696 
	C99.002251,72.003265 98.988884,71.991524 98.988876,71.991524 
z"/>
<path fill="#535455" opacity="1.000000" stroke="none" 
	d="
M16.210846,94.278999 
	C15.722294,91.259834 15.356101,88.543793 15.002462,85.408813 
	C15.476377,85.146088 16.215324,85.171806 16.358986,85.477379 
	C21.546505,96.511520 30.969084,100.940605 42.394276,102.308823 
	C43.035755,102.385635 43.648682,102.700905 44.963943,102.955513 
	C46.036076,103.029587 46.419159,103.053329 46.892609,103.355225 
	C47.044083,103.818512 47.105190,104.003647 47.328808,104.440430 
	C48.668789,105.744179 49.846256,106.796272 51.330624,107.918434 
	C52.051514,108.039658 52.465504,108.090828 52.938530,108.097870 
	C52.997570,108.053741 52.901546,108.165718 53.008118,108.420166 
	C53.447529,109.115181 53.780365,109.555756 53.756851,110.143158 
	C47.181400,113.605858 41.130371,110.517433 34.846970,109.528198 
	C32.441231,108.177773 30.205446,107.106674 27.969662,106.035568 
	C27.969664,106.035568 27.996426,106.001221 27.861122,105.709229 
	C26.471199,104.621719 25.216579,103.826202 23.961960,103.030693 
	C23.961958,103.030693 23.984644,102.995186 23.829269,102.751343 
	C23.100771,102.343102 22.527645,102.178703 21.954519,102.014297 
	C21.954519,102.014297 22.001837,101.998360 21.970715,101.689026 
	C21.283092,100.907204 20.626591,100.434723 19.970089,99.962242 
	C18.757795,98.168869 17.545500,96.375496 16.210846,94.278999 
z"/>
<path fill="#6B6C78" opacity="1.000000" stroke="none" 
	d="
M63.314953,113.060745 
	C63.923817,112.223412 64.892647,110.750839 66.025360,110.611610 
	C75.979721,109.388130 84.162277,104.270363 92.677689,99.039780 
	C89.435524,101.987419 86.241745,105.850624 82.140701,107.680260 
	C76.363121,110.257858 69.913300,111.328667 63.314953,113.060745 
z"/>
<path fill="#737482" opacity="1.000000" stroke="none" 
	d="
M35.016922,109.807518 
	C41.130371,110.517433 47.181400,113.605858 54.077293,110.119568 
	C55.184216,109.917587 55.614353,109.886009 56.415115,109.888359 
	C57.529781,109.964508 58.273823,110.006737 59.017864,110.048965 
	C59.951763,110.872101 60.885666,111.695236 62.032196,112.801712 
	C53.328873,112.610580 44.412918,112.136116 35.241920,111.059761 
	C34.996891,110.241081 35.006908,110.024300 35.016922,109.807518 
z"/>
<path fill="#696874" opacity="1.000000" stroke="none" 
	d="
M34.846970,109.528198 
	C35.006908,110.024300 34.996891,110.241081 34.961876,110.783119 
	C32.617054,109.648544 30.297226,108.188713 27.973530,106.382225 
	C30.205446,107.106674 32.441231,108.177773 34.846970,109.528198 
z"/>
<path fill="#696874" opacity="1.000000" stroke="none" 
	d="
M23.964787,103.392273 
	C25.216579,103.826202 26.471199,104.621719 27.850142,105.725548 
	C26.638847,105.273865 25.303230,104.513863 23.964787,103.392273 
z"/>
<path fill="#696874" opacity="1.000000" stroke="none" 
	d="
M20.094555,100.233078 
	C20.626591,100.434723 21.283092,100.907204 21.963631,101.712959 
	C21.398121,101.532127 20.808573,101.018021 20.094555,100.233078 
z"/>
<path fill="#696874" opacity="1.000000" stroke="none" 
	d="
M22.118498,102.274933 
	C22.527645,102.178703 23.100771,102.343102 23.829695,102.771957 
	C23.417820,102.869461 22.850149,102.702515 22.118498,102.274933 
z"/>
<path fill="#6B6C78" opacity="1.000000" stroke="none" 
	d="
M96.262978,95.214897 
	C96.149292,94.800278 96.267487,94.144058 96.654251,93.292969 
	C96.780167,93.723167 96.637512,94.348228 96.262978,95.214897 
z"/>
<path fill="#6B6C78" opacity="1.000000" stroke="none" 
	d="
M93.309509,98.945015 
	C93.291061,98.722343 93.564346,98.420212 94.155487,98.070587 
	C94.182640,98.303917 93.891937,98.584732 93.309509,98.945015 
z"/>
<path fill="#535355" opacity="1.000000" stroke="none" 
	d="
M116.935364,55.656372 
	C112.899010,55.923061 108.896523,55.957150 104.427643,56.000404 
	C103.961250,56.009575 104.001984,56.002274 103.960175,55.669212 
	C102.934097,54.889511 101.949829,54.442867 100.965561,53.996223 
	C100.965561,53.996223 101.007393,53.991684 101.007050,53.689285 
	C100.999329,52.957794 100.991959,52.528698 100.984589,52.099602 
	C107.545326,49.035862 111.980286,49.637272 116.942505,54.605247 
	C116.999886,54.954670 116.969231,55.423775 116.935364,55.656372 
z"/>
<path fill="#F2F3F3" opacity="1.000000" stroke="none" 
	d="
M84.955490,68.938118 
	C88.862137,69.414024 88.824089,72.828972 88.532578,75.143822 
	C88.047371,78.996857 86.630272,82.802917 81.891922,83.759026 
	C76.780067,84.790497 71.655907,85.794685 66.600288,87.062653 
	C60.257034,88.653572 54.645386,87.594032 49.512970,83.449699 
	C48.668934,82.768166 46.863800,82.580620 45.801311,82.972984 
	C34.483662,87.152412 29.715132,84.121216 27.341791,72.430389 
	C25.467813,63.199352 28.822351,55.901386 34.364300,49.451530 
	C37.546650,45.747841 42.221600,43.665550 47.797516,46.109779 
	C48.943096,48.569122 49.855366,50.360302 50.767635,52.151485 
	C50.767635,52.151485 50.852840,51.985828 50.515400,52.387878 
	C50.848518,54.644768 51.519077,56.499607 52.011936,57.862911 
	C50.379745,60.252254 48.362099,62.180389 47.665150,64.504562 
	C46.916435,67.001366 47.382786,69.870773 47.455933,72.573891 
	C47.458691,72.675903 49.445148,73.029602 49.579594,72.775406 
	C50.906834,70.265984 52.005791,67.637337 53.239681,65.076309 
	C53.747574,64.022141 54.426102,63.050179 55.027020,62.040825 
	C56.409134,62.995640 57.791248,63.950455 59.637260,65.323990 
	C63.286808,66.767479 66.472458,67.792244 69.445808,68.748711 
	C68.974327,71.156815 68.172989,73.577240 68.152107,76.004387 
	C68.140198,77.387085 69.402580,78.780754 70.091156,80.169479 
	C71.421768,79.183960 73.336227,78.472893 73.956497,77.153435 
	C75.103844,74.712715 75.493454,71.915787 75.938736,70.243492 
	C79.421593,69.739273 82.188545,69.338692 84.955490,68.938118 
z"/>
<path fill="#545455" opacity="1.000000" stroke="none" 
	d="
M110.475082,67.895805 
	C111.676277,71.918839 109.786369,73.378418 106.033417,72.960175 
	C103.956062,72.728653 101.899628,72.309418 99.411324,71.983154 
	C98.988884,71.991524 99.002251,72.003265 99.011147,71.613541 
	C98.338234,69.149078 97.656433,67.074341 96.974625,64.999611 
	C96.974625,64.999611 97.002968,64.998856 96.988358,64.703278 
	C96.637619,63.934765 96.301491,63.461830 95.965363,62.988895 
	C95.965363,62.988895 96.009247,62.993279 95.981644,62.703636 
	C95.605957,61.936573 95.257858,61.459152 94.909767,60.981735 
	C95.660172,60.381969 96.774994,59.108784 97.104370,59.287025 
	C100.254684,60.991859 103.305313,62.891129 106.312859,64.844955 
	C107.674049,65.729240 108.873955,66.861809 110.475082,67.895805 
z"/>
<path fill="#131313" opacity="1.000000" stroke="none" 
	d="
M84.769897,68.601517 
	C82.188545,69.338692 79.421593,69.739273 75.938736,70.243492 
	C75.493454,71.915787 75.103844,74.712715 73.956497,77.153435 
	C73.336227,78.472893 71.421768,79.183960 70.091156,80.169479 
	C69.402580,78.780754 68.140198,77.387085 68.152107,76.004387 
	C68.172989,73.577240 68.974327,71.156815 69.445808,68.748711 
	C66.472458,67.792244 63.286808,66.767479 59.950817,65.383156 
	C68.061752,66.104042 76.323029,67.184479 84.769897,68.601517 
z"/>
<path fill="#D5D6D8" opacity="1.000000" stroke="none" 
	d="
M43.880653,91.809822 
	C52.184208,95.145462 60.569973,93.374504 68.958511,92.268463 
	C70.284592,92.093613 71.667000,92.346016 73.034027,92.952011 
	C73.044678,93.503136 72.961632,93.925858 72.631882,93.935257 
	C71.417511,94.558563 70.532875,95.172470 69.396889,95.799202 
	C68.701180,96.027222 68.256813,96.242409 67.411407,96.396194 
	C65.696976,96.631226 64.383575,96.927666 62.623039,97.113197 
	C59.419949,97.092834 56.664001,97.183372 53.563915,97.148453 
	C52.494946,96.946785 51.770111,96.870575 50.835857,96.591782 
	C50.055435,96.398834 49.484436,96.408478 48.527718,96.317932 
	C46.568844,95.864349 44.795902,95.850464 43.472889,95.071953 
	C41.804523,94.090240 41.160923,92.574440 43.880653,91.809822 
z"/>
<path fill="#181919" opacity="1.000000" stroke="none" 
	d="
M55.034775,61.618736 
	C54.426102,63.050179 53.747574,64.022141 53.239681,65.076309 
	C52.005791,67.637337 50.906834,70.265984 49.579594,72.775406 
	C49.445148,73.029602 47.458691,72.675903 47.455933,72.573891 
	C47.382786,69.870773 46.916435,67.001366 47.665150,64.504562 
	C48.362099,62.180389 50.379745,60.252254 52.011936,57.862911 
	C51.519077,56.499607 50.848518,54.644768 50.452171,52.456272 
	C53.550556,54.488293 55.494728,57.272545 55.034775,61.618736 
z"/>
<path fill="#232325" opacity="1.000000" stroke="none" 
	d="
M43.682861,91.519455 
	C41.160923,92.574440 41.804523,94.090240 43.472889,95.071953 
	C44.795902,95.850464 46.568844,95.864349 48.588203,96.611397 
	C49.701332,97.386398 50.368256,97.767738 50.969124,98.464890 
	C50.263096,99.849449 49.623123,100.918205 48.968925,102.217766 
	C48.954697,102.448578 48.946205,102.910889 48.757736,102.968750 
	C48.569267,103.026604 48.183163,103.106537 47.838341,103.079994 
	C47.263092,103.061325 47.032669,103.069199 46.802242,103.077080 
	C46.419159,103.053329 46.036076,103.029587 45.366325,102.995102 
	C42.471439,98.752853 39.863220,94.521347 36.949154,89.793655 
	C39.073196,90.260139 41.279133,90.744614 43.682861,91.519455 
z"/>
<path fill="#242527" opacity="1.000000" stroke="none" 
	d="
M72.961632,93.925858 
	C72.961632,93.925858 73.044678,93.503136 73.142570,93.311249 
	C74.129250,92.406166 75.066376,91.744545 75.895302,90.967499 
	C77.093536,89.844284 78.213364,88.637436 80.183846,88.300049 
	C78.239876,91.679153 76.295906,95.058250 74.186630,98.739853 
	C73.287666,100.039482 72.554008,101.036606 71.333237,101.817307 
	C69.834900,99.886452 68.823677,98.172020 67.812454,96.457596 
	C68.256813,96.242409 68.701180,96.027222 69.778755,95.878265 
	C71.261856,95.271622 72.111748,94.598740 72.961632,93.925858 
z"/>
<path fill="#7D7E7A" opacity="1.000000" stroke="none" 
	d="
M12.369802,24.999283 
	C16.808603,23.924982 21.666307,22.637981 26.605211,21.880245 
	C29.353085,21.458662 32.236263,21.918995 35.525917,21.980316 
	C36.816833,22.347763 37.640297,22.716761 39.357674,23.486322 
	C30.003082,24.022673 21.412857,24.515196 12.369802,24.999283 
z"/>
<path fill="#555457" opacity="1.000000" stroke="none" 
	d="
M19.071295,55.590607 
	C15.946312,56.599236 12.881656,57.272125 9.370798,57.893639 
	C11.258168,53.552074 15.803128,51.612118 21.889290,52.633724 
	C20.812941,53.656788 19.972281,54.455833 19.071295,55.590607 
z"/>
<path fill="#797979" opacity="1.000000" stroke="none" 
	d="
M10.118816,45.392982 
	C10.850043,44.989079 11.551782,44.938793 12.605890,44.922272 
	C11.188184,47.282162 9.418109,49.608288 7.295862,51.943691 
	C7.992236,49.884182 9.040782,47.815388 10.118816,45.392982 
z"/>
<path fill="#181919" opacity="1.000000" stroke="none" 
	d="
M50.916054,51.792133 
	C49.855366,50.360302 48.943096,48.569122 48.069679,46.419830 
	C49.093849,47.852074 50.079163,49.642426 50.916054,51.792133 
z"/>
<path fill="#313135" opacity="1.000000" stroke="none" 
	d="
M96.930611,65.398117 
	C97.656433,67.074341 98.338234,69.149078 99.015144,71.620972 
	C98.501823,71.135254 97.993401,70.252373 97.227646,69.183792 
	C96.942398,67.930931 96.914497,66.863777 96.930611,65.398117 
z"/>
<path fill="#797979" opacity="1.000000" stroke="none" 
	d="
M13.306473,44.942772 
	C13.737425,43.982456 14.514721,43.006649 15.627585,41.992558 
	C15.193042,42.945274 14.422930,43.936275 13.306473,44.942772 
z"/>
<path fill="#323235" opacity="1.000000" stroke="none" 
	d="
M101.131683,54.275597 
	C101.949829,54.442867 102.934097,54.889511 103.959648,55.689232 
	C103.099892,55.546524 102.198845,55.050743 101.131683,54.275597 
z"/>
<path fill="#323235" opacity="1.000000" stroke="none" 
	d="
M100.717598,52.098099 
	C100.991959,52.528698 100.999329,52.957794 101.005341,53.710258 
	C100.819519,53.387951 100.635063,52.742271 100.717598,52.098099 
z"/>
<path fill="#797979" opacity="1.000000" stroke="none" 
	d="
M17.189243,40.983238 
	C17.053406,40.647705 17.249849,40.387886 17.764149,40.092640 
	C17.801764,40.320492 17.614939,40.654411 17.189243,40.983238 
z"/>
<path fill="#313135" opacity="1.000000" stroke="none" 
	d="
M95.963913,63.301441 
	C96.301491,63.461830 96.637619,63.934765 96.980637,64.715179 
	C96.645844,64.553108 96.304161,64.083549 95.963913,63.301441 
z"/>
<path fill="#313135" opacity="1.000000" stroke="none" 
	d="
M94.959335,61.285866 
	C95.257858,61.459152 95.605957,61.936573 95.975342,62.724762 
	C95.667381,62.553688 95.338135,62.071842 94.959335,61.285866 
z"/>
<path fill="#797979" opacity="1.000000" stroke="none" 
	d="
M5.954521,53.862591 
	C5.889032,53.396835 6.146499,52.825508 6.680201,52.108696 
	C6.730116,52.561142 6.503797,53.159084 5.954521,53.862591 
z"/>
<path fill="#797979" opacity="1.000000" stroke="none" 
	d="
M16.202904,41.883785 
	C16.149305,41.700966 16.333685,41.424316 16.755957,41.049751 
	C16.809526,41.231209 16.625202,41.510586 16.202904,41.883785 
z"/>
<path fill="#797B77" opacity="1.000000" stroke="none" 
	d="
M108.060455,41.188419 
	C108.243271,41.119797 108.586372,41.313938 109.123032,41.738056 
	C108.951302,41.795746 108.586021,41.623463 108.060455,41.188419 
z"/>
<path fill="#777874" opacity="1.000000" stroke="none" 
	d="
M77.827179,25.049482 
	C77.827179,25.049482 77.888855,25.484686 77.884476,25.703701 
	C77.583229,25.835463 77.350891,25.661839 77.093628,25.198162 
	C77.004166,24.994478 76.999420,25.000551 77.205200,25.010828 
	C77.410980,25.021105 77.827179,25.049482 77.827179,25.049482 
z"/>
<path fill="#797979" opacity="1.000000" stroke="none" 
	d="
M5.952592,56.836273 
	C5.770741,56.885147 5.465211,56.703495 5.080024,56.260998 
	C5.276549,56.202019 5.552732,56.403877 5.952592,56.836273 
z"/>
<path fill="#FBFBFB" opacity="1.000000" stroke="none" 
	d="
M16.287121,61.143654 
	C16.155960,60.998589 15.975270,60.854851 15.837368,60.677788 
	C15.804524,60.635612 15.914690,60.482063 15.959082,60.379738 
	C16.104849,60.491123 16.250616,60.602509 16.291933,60.909790 
	C16.187483,61.105686 16.253258,61.132778 16.287121,61.143654 
z"/>
<path fill="#656565" opacity="1.000000" stroke="none" 
	d="
M78.005745,24.786003 
	C77.827179,25.049482 77.410980,25.021105 77.202469,25.013382 
	C77.403778,24.373528 77.813591,23.741398 78.532104,23.067640 
	C78.840790,23.026014 79.122467,23.384636 79.180069,23.605247 
	C78.886559,24.058083 78.535439,24.290302 78.005745,24.786003 
z"/>
<path fill="#233615" opacity="1.000000" stroke="none" 
	d="
M67.411407,96.396194 
	C68.823677,98.172020 69.834900,99.886452 71.033066,101.941460 
	C70.116570,103.540359 69.013130,104.798676 67.463760,106.033646 
	C67.017822,106.010307 66.753853,105.753876 66.835114,105.464447 
	C66.942474,104.774422 66.968575,104.373825 67.016388,103.759575 
	C67.038094,103.545929 67.059967,103.116982 67.244484,103.003777 
	C67.299530,102.576637 67.170059,102.262711 67.035065,101.956146 
	C67.029541,101.963524 67.063881,101.947151 66.787354,101.642639 
	C60.668262,101.554405 54.825706,101.770683 48.983154,101.986954 
	C49.623123,100.918205 50.263096,99.849449 50.984142,98.125427 
	C51.058571,97.244896 51.051926,97.019630 51.045277,96.794373 
	C51.770111,96.870575 52.494946,96.946785 53.586765,97.511757 
	C56.027889,100.039536 60.067081,99.695534 63.070183,97.224106 
	C64.383575,96.927666 65.696976,96.631226 67.411407,96.396194 
z"/>
<path fill="#75C126" opacity="1.000000" stroke="none" 
	d="
M48.183163,103.106537 
	C48.183163,103.106537 48.569267,103.026604 49.076775,103.121063 
	C50.710922,103.476509 51.837570,103.737488 53.198246,104.303162 
	C56.693142,105.087906 59.954002,105.567955 63.182510,106.372345 
	C63.103443,107.128426 63.056728,107.560181 63.010010,107.991936 
	C62.532093,108.272629 62.054176,108.553322 60.906189,108.921394 
	C58.862804,109.026497 57.489494,109.044228 55.802059,108.924332 
	C54.625805,108.579720 53.763676,108.372719 52.901546,108.165718 
	C52.901546,108.165718 52.997570,108.053741 52.852562,107.848595 
	C52.146275,107.711761 51.584999,107.780067 51.023724,107.848373 
	C49.846256,106.796272 48.668789,105.744179 47.559364,104.326645 
	C47.812664,103.676323 47.997913,103.391426 48.183163,103.106537 
z"/>
<path fill="#233615" opacity="1.000000" stroke="none" 
	d="
M63.376831,107.991112 
	C63.056728,107.560181 63.103443,107.128426 63.478889,106.390007 
	C64.204964,106.074150 64.602310,106.064964 65.298668,106.048706 
	C65.983070,105.945717 66.368462,105.849792 66.753853,105.753876 
	C66.753853,105.753876 67.017822,106.010307 67.154320,106.137894 
	C66.108429,106.840424 64.926041,107.415352 63.376831,107.991112 
z"/>
<path fill="#447225" opacity="1.000000" stroke="none" 
	d="
M56.116184,109.061951 
	C57.489494,109.044228 58.862804,109.026497 60.649757,109.036163 
	C60.577877,109.364372 60.092358,109.665199 59.312355,110.007492 
	C58.273823,110.006737 57.529781,109.964508 56.415092,109.689148 
	C56.044441,109.456024 56.116184,109.061951 56.116184,109.061951 
z"/>
<path fill="#73B638" opacity="1.000000" stroke="none" 
	d="
M55.802059,108.924332 
	C56.116184,109.061951 56.044441,109.456024 56.044464,109.655228 
	C55.614353,109.886009 55.184216,109.917587 54.433640,109.972748 
	C53.780365,109.555756 53.447529,109.115181 53.008118,108.420166 
	C53.763676,108.372719 54.625805,108.579720 55.802059,108.924332 
z"/>
<path fill="#73B638" opacity="1.000000" stroke="none" 
	d="
M51.330624,107.918442 
	C51.584999,107.780067 52.146275,107.711761 52.793522,107.892715 
	C52.465504,108.090828 52.051514,108.039658 51.330624,107.918442 
z"/>
<path fill="#233615" opacity="1.000000" stroke="none" 
	d="
M47.838341,103.079994 
	C47.997913,103.391426 47.812664,103.676323 47.396851,104.074997 
	C47.105190,104.003647 47.044083,103.818512 46.892609,103.355225 
	C47.032669,103.069199 47.263092,103.061325 47.838341,103.079994 
z"/>
<path fill="#454847" opacity="1.000000" stroke="none" 
	d="
M62.623039,97.113197 
	C60.067081,99.695534 56.027889,100.039536 53.930901,97.637222 
	C56.664001,97.183372 59.419949,97.092834 62.623039,97.113197 
z"/>
<path fill="#454847" opacity="1.000000" stroke="none" 
	d="
M72.631882,93.935257 
	C72.111748,94.598740 71.261856,95.271622 70.030106,95.865433 
	C70.532875,95.172470 71.417511,94.558563 72.631882,93.935257 
z"/>
<path fill="#454847" opacity="1.000000" stroke="none" 
	d="
M50.835857,96.591782 
	C51.051926,97.019630 51.058571,97.244896 51.050201,97.809624 
	C50.368256,97.767738 49.701332,97.386398 48.973919,96.711586 
	C49.484436,96.408478 50.055435,96.398834 50.835857,96.591782 
z"/>
<path fill="#528A17" opacity="1.000000" stroke="none" 
	d="
M52.964214,103.998474 
	C51.837570,103.737488 50.710922,103.476509 49.265244,103.063210 
	C48.946205,102.910889 48.954697,102.448578 48.968925,102.217766 
	C54.825706,101.770683 60.668262,101.554405 66.375641,101.664047 
	C61.815044,102.659470 57.389629,103.328972 52.964214,103.998474 
z"/>
<path fill="#4D9703" opacity="1.000000" stroke="none" 
	d="
M53.198246,104.303162 
	C57.389629,103.328972 61.815044,102.659470 66.652176,101.968559 
	C67.063881,101.947151 67.029541,101.963524 67.028183,102.248566 
	C67.037872,102.728065 67.048920,102.922523 67.059967,103.116982 
	C67.059967,103.116982 67.038094,103.545929 66.692001,103.807785 
	C65.897156,104.731674 65.448402,105.393723 64.999657,106.055771 
	C64.602310,106.064964 64.204964,106.074150 63.511242,106.065674 
	C59.954002,105.567955 56.693142,105.087906 53.198246,104.303162 
z"/>
<path fill="#528A17" opacity="1.000000" stroke="none" 
	d="
M65.298668,106.048706 
	C65.448402,105.393723 65.897156,104.731674 66.670288,104.021423 
	C66.968575,104.373825 66.942474,104.774422 66.835114,105.464447 
	C66.368462,105.849792 65.983070,105.945717 65.298668,106.048706 
z"/>
<path fill="#528A17" opacity="1.000000" stroke="none" 
	d="
M67.244484,103.003777 
	C67.048920,102.922523 67.037872,102.728065 67.033707,102.241188 
	C67.170059,102.262711 67.299530,102.576637 67.244484,103.003777 
z"/>
</svg>