<svg version="1.1" id="Layer_1" xmlns="http://www.w3.org/2000/svg" xmlns:xlink="http://www.w3.org/1999/xlink" x="0px" y="0px"
	 width="100%" viewBox="0 0 185 183" enable-background="new 0 0 185 183" xml:space="preserve">
<path fill="#FDFDFD" opacity="1.000000" stroke="none" 
	d="
M153.000000,184.000000 
	C102.417740,184.000000 51.835484,184.000000 1.000000,184.000000 
	C1.000000,147.312820 1.000000,110.625069 1.340832,73.548141 
	C5.737079,74.134056 9.792494,75.109138 13.951715,76.343002 
	C14.405602,76.949028 14.755682,77.296249 15.476116,77.783012 
	C16.110191,77.930351 16.373913,77.938148 16.523155,78.298950 
	C15.282825,79.606918 14.037912,80.453377 13.051672,81.535568 
	C8.710849,86.298668 3.331794,90.533127 4.083436,98.521027 
	C4.395300,102.643089 4.774233,106.324524 5.076669,110.387436 
	C5.977013,114.184090 7.994052,113.419098 10.372173,112.047974 
	C10.583689,112.042885 10.994472,111.941315 11.360675,111.919006 
	C15.177645,110.185524 18.628410,108.474335 22.299883,107.206238 
	C22.774519,112.433922 23.028448,117.218521 23.255310,122.251205 
	C23.454273,122.732025 23.680305,122.964767 24.102894,123.577881 
	C27.216656,123.554626 30.133862,123.151016 33.408634,122.773277 
	C34.392315,123.033318 35.018429,123.267487 35.543854,123.913750 
	C36.883125,129.583878 38.323086,134.841904 39.821907,140.457138 
	C43.207317,144.709167 46.169380,149.013138 49.958504,152.388702 
	C54.104881,156.082520 58.686878,159.604813 63.660992,161.986359 
	C74.242012,167.052399 85.822708,168.960205 97.412125,169.234650 
	C109.299644,169.516144 121.439995,170.935257 133.089310,166.479523 
	C137.501755,171.083252 141.655273,175.531586 146.121002,179.640625 
	C148.086761,181.449387 150.687531,182.568039 153.000000,184.000000 
z"/>
<path fill="#FDFBFA" opacity="1.000000" stroke="none" 
	d="
M0.999999,69.000000 
	C1.000000,46.386482 1.000000,23.772961 1.000000,1.000000 
	C40.354092,1.000000 79.708389,1.000000 119.370560,1.339089 
	C113.727821,4.035575 107.777214,6.392973 101.847778,8.762293 
	C101.868950,8.774215 101.824242,8.760634 101.457932,8.776834 
	C99.572693,10.155772 98.053772,11.518509 96.330368,12.858692 
	C95.820030,12.990973 95.737579,13.224531 95.549850,13.640226 
	C94.140518,14.558433 93.059875,15.373222 91.667084,16.020243 
	C88.866875,12.249699 93.052963,10.122066 93.620422,6.930031 
	C91.757027,2.790321 85.676460,2.821185 80.693527,6.877275 
	C80.117294,6.969390 79.842598,7.119850 79.560089,7.428578 
	C79.481125,7.456955 79.335190,7.539821 79.075859,7.594632 
	C78.464806,7.999271 78.113083,8.349098 77.749771,8.732769 
	C77.738190,8.766613 77.800995,8.732338 77.512016,8.768302 
	C77.056702,9.133290 76.890366,9.462315 76.784729,9.812349 
	C76.845413,9.833360 76.782661,9.721276 76.497688,9.768615 
	C76.052704,10.145759 75.892693,10.475565 75.761055,10.855785 
	C75.789429,10.906199 75.882324,10.837221 75.502975,10.912544 
	C74.978973,11.456760 74.834335,11.925654 74.606598,12.419140 
	C74.523514,12.443732 74.295372,12.694595 73.933289,12.787426 
	C73.255646,13.502863 72.940079,14.125470 72.616562,14.733846 
	C72.608612,14.719614 72.576096,14.717216 72.274048,14.849366 
	C70.663757,15.615444 69.355499,16.249371 68.035179,16.462940 
	C68.407623,13.716019 69.162773,11.371367 69.050392,9.069060 
	C68.971397,7.450675 67.487686,4.468345 67.016777,4.542527 
	C64.614029,4.921029 62.336731,6.095846 59.669250,6.952761 
	C58.767895,7.238820 58.212833,7.564168 57.370831,7.873389 
	C56.713886,7.951132 56.343876,8.045003 55.611294,8.058831 
	C52.102089,10.276041 48.955456,12.573292 45.833397,14.879145 
	C45.857971,14.887747 45.825203,14.841937 45.509758,14.957076 
	C42.390915,19.827194 39.587517,24.582172 36.487305,29.691032 
	C36.069633,33.976402 35.948784,37.907894 35.586159,41.610809 
	C33.146976,36.011662 30.949572,30.641083 29.087347,26.089706 
	C25.794397,31.437231 27.859919,39.908360 34.887619,45.602013 
	C35.126461,46.348438 35.345501,46.743446 35.561848,47.458687 
	C35.986916,48.366287 36.414673,48.953667 36.661564,49.989532 
	C36.337227,50.726730 36.193756,51.015438 35.599312,51.208603 
	C25.863087,50.670895 17.338554,52.645767 9.981810,59.254429 
	C6.853702,62.692249 3.926850,65.846123 0.999999,69.000000 
z"/>
<path fill="#FCFBFA" opacity="1.000000" stroke="none" 
	d="
M133.000000,0.999999 
	C150.619125,1.000000 168.238235,1.000000 186.000000,1.000000 
	C186.000000,37.354111 186.000000,73.708397 185.631805,110.428581 
	C184.233231,108.095909 183.202850,105.397346 182.236359,102.395264 
	C178.902542,93.054932 175.504822,84.018112 172.065308,74.620598 
	C170.331406,71.347542 168.743484,68.368004 166.920181,65.540222 
	C164.756638,62.184715 162.390488,58.959831 159.975922,55.370167 
	C156.644180,51.545914 153.448685,48.029835 150.189896,44.444141 
	C152.547241,42.703472 154.314651,41.398411 156.465622,40.069687 
	C159.273361,39.056583 161.697525,38.067139 164.081055,37.061897 
	C164.040421,37.046101 164.028580,37.132488 164.366577,37.078827 
	C165.002991,36.705387 165.301407,36.385605 165.666351,36.167252 
	C165.732864,36.268684 165.962326,36.189991 166.280624,36.128246 
	C167.395187,35.362144 168.191452,34.657787 169.315979,33.899349 
	C170.324066,32.401398 171.980057,30.273045 171.525406,29.624619 
	C168.550461,25.381783 164.491943,22.549501 158.702240,22.116795 
	C154.698776,20.942356 151.106873,19.605452 147.394943,18.973909 
	C144.671616,18.510565 141.790939,18.972153 138.738953,18.951836 
	C138.336258,18.927467 138.174973,18.972786 137.640808,18.942745 
	C136.522079,18.989872 135.776230,19.112360 134.775391,19.015942 
	C135.449783,16.566168 136.379181,14.335300 137.525909,12.078086 
	C138.036606,11.885791 138.154205,11.636810 138.448364,11.129733 
	C138.859894,9.965684 138.919128,8.976699 139.080200,7.680884 
	C138.597137,6.542478 138.012222,5.710901 137.296341,4.594210 
	C136.773712,4.216339 136.382034,4.123583 135.865784,3.910288 
	C135.741211,3.789748 135.398621,3.842884 135.306931,3.529383 
	C134.476837,2.477254 133.738419,1.738626 133.000000,0.999999 
z"/>
<path fill="#B16E93" opacity="1.000000" stroke="none" 
	d="
M153.467606,184.000000 
	C150.687531,182.568039 148.086761,181.449387 146.121002,179.640625 
	C141.655273,175.531586 137.501755,171.083252 133.141724,166.121124 
	C133.037476,164.986984 133.012863,164.504562 132.994446,163.664307 
	C133.020126,162.828491 133.039612,162.350494 133.352783,162.042236 
	C134.824509,163.590408 135.993134,164.977036 137.182190,166.345901 
	C142.435333,172.393341 147.842743,178.217255 155.960236,180.485794 
	C164.466278,182.862930 174.860962,178.597565 179.044891,170.941833 
	C183.082596,163.553650 181.526489,153.144669 175.161926,147.700012 
	C170.107819,143.376373 164.561783,139.423920 157.611893,139.233093 
	C153.351883,139.116135 148.325012,136.956787 144.719879,141.992065 
	C143.884018,142.021683 143.406601,142.044189 142.548187,142.045456 
	C141.225967,141.724609 140.254120,141.497437 139.348175,141.114349 
	C128.724487,136.622009 118.475571,136.073746 108.986191,143.597931 
	C108.978065,142.854752 108.978928,142.430115 109.013802,141.656296 
	C109.468948,140.254868 109.890091,139.202637 110.660187,138.060715 
	C115.990440,136.955276 120.971756,135.939560 126.360069,134.957489 
	C134.132004,136.120346 141.360580,140.478851 149.290680,135.919189 
	C150.105331,135.537796 150.594620,135.165619 151.473999,134.861145 
	C152.916504,134.941223 153.968933,134.953613 155.104004,135.183182 
	C155.186676,135.400360 155.367966,135.828308 155.133881,135.960449 
	C155.598282,136.045044 156.296753,135.997482 157.378876,135.923523 
	C158.784821,135.844269 159.807144,135.791443 161.148300,135.950958 
	C164.634781,137.440903 167.802429,138.718536 171.150757,140.249268 
	C172.480804,141.274216 173.630157,142.046051 174.923676,143.151047 
	C177.746887,146.413147 180.452133,149.318756 183.091980,152.282608 
	C184.136230,153.455017 185.035004,154.757004 186.000000,156.000000 
	C186.000000,156.000000 186.000000,156.500000 185.704895,157.037354 
	C185.258987,161.339996 185.108200,165.105286 184.687164,169.088501 
	C181.911102,176.460815 175.757690,180.036270 170.000000,184.000000 
	C164.645065,184.000000 159.290146,184.000000 153.467606,184.000000 
z"/>
<path fill="#F8F6F8" opacity="1.000000" stroke="none" 
	d="
M186.000000,155.531342 
	C185.035004,154.757004 184.136230,153.455017 183.091980,152.282608 
	C180.452133,149.318756 177.746887,146.413147 174.993561,142.793457 
	C175.193054,141.362900 175.247009,140.351898 175.774139,139.924591 
	C182.109604,134.788849 183.405472,127.538193 184.557983,120.032761 
	C185.231064,119.985832 185.615524,119.992920 186.000000,120.000000 
	C186.000000,131.687561 186.000000,143.375122 186.000000,155.531342 
z"/>
<path fill="#FBF8FA" opacity="1.000000" stroke="none" 
	d="
M170.471191,184.000000 
	C175.757690,180.036270 181.911102,176.460815 184.946075,169.135574 
	C185.650146,168.976456 185.825073,168.988220 186.000000,169.000000 
	C186.000000,173.927475 186.000000,178.854950 186.000000,184.000000 
	C180.982193,184.000000 175.962296,184.000000 170.471191,184.000000 
z"/>
<path fill="#A08144" opacity="1.000000" stroke="none" 
	d="
M0.999999,69.399994 
	C3.926850,65.846123 6.853702,62.692249 10.256176,59.282066 
	C11.096037,59.076267 11.460276,59.126778 11.880003,59.471725 
	C11.946132,60.167557 11.956772,60.568947 11.670454,61.137253 
	C10.949430,61.805042 10.470359,62.269356 10.109501,62.812241 
	C4.150521,71.777168 4.334995,72.194916 14.978357,74.379623 
	C14.579246,75.153236 14.213578,75.618729 13.847910,76.084213 
	C9.792494,75.109138 5.737079,74.134056 1.340832,73.079483 
	C1.000000,71.933327 1.000000,70.866661 0.999999,69.399994 
z"/>
<path fill="#7E1F1B" opacity="1.000000" stroke="none" 
	d="
M132.536819,0.999999 
	C133.738419,1.738626 134.476837,2.477254 134.878052,3.574116 
	C132.696732,4.268865 130.852600,4.605381 128.553970,4.952512 
	C125.066101,4.974323 122.032738,4.985519 118.772507,4.743128 
	C114.822624,5.498179 110.154625,4.273608 107.695587,9.091608 
	C106.604652,9.488267 105.804962,9.750858 104.779648,9.741237 
	C103.644875,9.229473 102.735741,8.989923 101.826607,8.750371 
	C107.777214,6.392973 113.727821,4.035575 119.839218,1.339089 
	C124.024544,1.000000 128.049088,1.000000 132.536819,0.999999 
z"/>
<path fill="#1B4E54" opacity="1.000000" stroke="none" 
	d="
M186.000000,119.550018 
	C185.615524,119.992920 185.231064,119.985832 184.194641,120.036461 
	C182.385117,120.361855 181.227509,120.629547 180.061218,120.493477 
	C179.686493,115.371796 179.320480,110.653877 178.973572,105.612068 
	C179.018707,104.854477 179.044724,104.420769 179.433289,103.983215 
	C180.588028,103.552498 181.380249,103.125641 182.172455,102.698792 
	C183.202850,105.397346 184.233231,108.095909 185.631805,110.897240 
	C186.000000,113.700012 186.000000,116.400032 186.000000,119.550018 
z"/>
<path fill="#B595A5" opacity="1.000000" stroke="none" 
	d="
M186.000000,168.539368 
	C185.825073,168.988220 185.650146,168.976456 185.216324,168.917633 
	C185.108200,165.105286 185.258987,161.339996 185.704895,157.287354 
	C186.000000,160.692902 186.000000,164.385818 186.000000,168.539368 
z"/>
<path fill="#413E58" opacity="1.000000" stroke="none" 
	d="
M132.988235,164.022141 
	C133.012863,164.504562 133.037476,164.986984 133.009705,165.827820 
	C121.439995,170.935257 109.299644,169.516144 97.412125,169.234650 
	C85.822708,168.960205 74.242012,167.052399 63.660992,161.986359 
	C58.686878,159.604813 54.104881,156.082520 49.958504,152.388702 
	C46.169380,149.013138 43.207317,144.709167 40.225220,140.425400 
	C41.376778,139.982727 42.183891,139.929016 43.317303,139.913116 
	C44.078571,139.995148 44.513538,140.039368 45.001251,140.423645 
	C46.703514,143.015427 48.118511,145.493637 50.039799,147.482864 
	C64.810478,162.775940 84.296585,164.774094 103.839821,165.663712 
	C113.170235,166.088440 122.588524,164.582901 132.221939,163.974823 
	C132.647308,164.006027 132.817764,164.014084 132.988235,164.022141 
z"/>
<path fill="#25644F" opacity="1.000000" stroke="none" 
	d="
M35.644543,123.501648 
	C35.018429,123.267487 34.392315,123.033318 33.514149,122.509460 
	C33.293465,122.059853 33.367043,121.893532 33.343956,121.741913 
	C33.322258,121.599403 33.190861,121.351578 33.120739,121.356010 
	C30.088041,121.547676 27.056795,121.762321 24.019714,121.537033 
	C24.011194,116.091377 24.008329,111.082848 24.303312,105.933281 
	C25.421389,105.516350 26.241619,105.240471 27.321701,104.946960 
	C27.752920,104.899055 27.924284,104.868782 28.117140,105.074310 
	C28.138630,105.310120 28.136395,105.783691 27.960190,106.152962 
	C27.491529,107.281250 26.985062,108.028809 26.943674,108.801277 
	C26.764591,112.143715 26.721481,115.493439 26.628910,118.840508 
	C29.247602,118.885422 31.866247,118.933327 34.485023,118.972588 
	C34.975563,118.979942 35.466625,118.952652 36.018227,119.289215 
	C37.035679,120.088913 37.992344,120.540741 38.955437,121.327866 
	C38.979012,122.109993 38.996162,122.556824 38.982460,123.017471 
	C38.951599,123.031281 38.891029,123.061325 38.577850,123.016464 
	C37.391296,123.148293 36.517918,123.324974 35.644543,123.501648 
z"/>
<path fill="#AC9646" opacity="1.000000" stroke="none" 
	d="
M13.951716,76.343002 
	C14.213578,75.618729 14.579246,75.153236 15.419557,74.355972 
	C21.710194,74.729767 27.526184,75.435349 33.342178,76.140923 
	C33.360535,76.560097 33.378887,76.979263 33.397243,77.398438 
	C32.244438,78.129326 31.091629,78.860214 30.090271,79.495079 
	C32.687965,80.588104 35.375446,81.718910 37.645226,82.900253 
	C33.489944,81.931885 29.752365,80.912964 25.911644,79.702423 
	C25.629995,79.264297 25.392441,79.106888 25.075394,79.005669 
	C25.054953,78.972786 25.017132,78.905205 24.949581,78.555466 
	C21.805489,74.850014 18.436106,76.586136 15.105762,77.643478 
	C14.755682,77.296249 14.405602,76.949028 13.951716,76.343002 
z"/>
<path fill="#11444A" opacity="1.000000" stroke="none" 
	d="
M35.543854,123.913750 
	C36.517918,123.324974 37.391296,123.148293 38.616573,123.412338 
	C40.309319,129.193802 41.650162,134.534546 42.991005,139.875290 
	C42.183891,139.929016 41.376778,139.982727 40.166359,140.068192 
	C38.323086,134.841904 36.883125,129.583878 35.543854,123.913750 
z"/>
<path fill="#1C6147" opacity="1.000000" stroke="none" 
	d="
M10.994472,111.941315 
	C10.994472,111.941315 10.583689,112.042885 10.012213,112.027245 
	C8.011545,111.343056 6.582355,110.674507 5.153165,110.005959 
	C4.774233,106.324524 4.395300,102.643089 4.389451,98.492264 
	C5.170679,97.988770 5.578824,97.954674 6.290297,97.971375 
	C6.996148,98.085945 7.398669,98.149712 7.827180,98.517998 
	C7.893350,99.227951 7.933531,99.633400 7.822224,100.387497 
	C7.044600,104.183517 5.679944,107.928978 10.998880,109.347878 
	C10.998530,110.459358 10.996501,111.200340 10.994472,111.941315 
z"/>
<path fill="#616F4A" opacity="1.000000" stroke="none" 
	d="
M5.986970,97.920570 
	C5.578824,97.954674 5.170679,97.988770 4.456519,98.051636 
	C3.331794,90.533127 8.710849,86.298668 13.051672,81.535568 
	C14.037912,80.453377 15.282825,79.606918 16.806210,78.351654 
	C17.783756,78.070099 18.363766,78.088837 18.800289,78.391930 
	C15.983674,81.405243 12.820769,83.814285 10.771898,86.950996 
	C8.620775,90.244255 7.537122,94.234772 5.986970,97.920570 
z"/>
<path fill="#24533D" opacity="1.000000" stroke="none" 
	d="
M11.360675,111.919006 
	C10.996501,111.200340 10.998530,110.459358 11.170885,109.111526 
	C11.890634,108.338120 12.440058,108.171570 13.188463,108.249306 
	C14.924544,107.327942 16.461643,106.162292 18.145878,104.766174 
	C18.874716,104.117119 19.456419,103.698524 20.430504,103.209473 
	C21.879736,103.026604 22.936586,102.914200 24.153160,103.089668 
	C25.229202,103.906555 26.145525,104.435570 27.061848,104.964584 
	C26.241619,105.240471 25.421389,105.516350 24.028400,105.917015 
	C22.996820,106.282249 22.538000,106.522697 22.079178,106.763153 
	C18.628410,108.474335 15.177645,110.185524 11.360675,111.919006 
z"/>
<path fill="#2B5B4C" opacity="1.000000" stroke="none" 
	d="
M22.299885,107.206238 
	C22.538000,106.522697 22.996820,106.282249 23.730553,106.058060 
	C24.008329,111.082848 24.011194,116.091377 24.009636,121.547302 
	C24.005215,121.994713 23.986330,122.013306 23.810368,122.008888 
	C23.634407,122.004471 23.282379,122.003120 23.282379,122.003120 
	C23.028448,117.218521 22.774519,112.433922 22.299885,107.206238 
z"/>
<path fill="#2B5B4C" opacity="1.000000" stroke="none" 
	d="
M24.015293,121.984444 
	C27.056795,121.762321 30.088041,121.547676 33.120739,121.356010 
	C33.190861,121.351578 33.322258,121.599403 33.343956,121.741913 
	C33.367043,121.893532 33.293465,122.059853 33.156582,122.483582 
	C30.133862,123.151016 27.216656,123.554626 24.134796,123.282639 
	C23.975540,122.409119 23.980934,122.211212 23.986330,122.013306 
	C23.986330,122.013306 24.005215,121.994713 24.015293,121.984444 
z"/>
<path fill="#A08144" opacity="1.000000" stroke="none" 
	d="
M18.943775,78.107574 
	C18.363766,78.088837 17.783756,78.070099 16.920691,77.998650 
	C16.373913,77.938148 16.110191,77.930351 15.476115,77.783012 
	C18.436106,76.586136 21.805489,74.850014 24.619640,78.590607 
	C23.915880,78.997070 23.474508,79.018654 22.709938,78.883652 
	C21.239084,78.520569 20.091431,78.314072 18.943775,78.107574 
z"/>
<path fill="#24533D" opacity="1.000000" stroke="none" 
	d="
M5.076670,110.387436 
	C6.582355,110.674507 8.011545,111.343056 9.800697,112.032333 
	C7.994052,113.419098 5.977013,114.184090 5.076670,110.387436 
z"/>
<path fill="#25644F" opacity="1.000000" stroke="none" 
	d="
M23.810368,122.008888 
	C23.980934,122.211212 23.975540,122.409119 23.938240,122.902267 
	C23.680305,122.964767 23.454273,122.732025 23.255310,122.251205 
	C23.282379,122.003120 23.634407,122.004471 23.810368,122.008888 
z"/>
<path fill="#C02B1F" opacity="1.000000" stroke="none" 
	d="
M105.005280,10.013449 
	C105.804962,9.750858 106.604652,9.488267 108.049789,8.964634 
	C112.129951,7.467965 115.564667,6.232339 118.999382,4.996714 
	C122.032738,4.985519 125.066101,4.974323 128.937561,5.022176 
	C131.740112,5.595306 133.704559,6.109386 135.878922,6.678399 
	C135.537491,8.570427 135.232178,10.262251 134.670319,12.198752 
	C132.962509,14.633891 131.511246,16.824352 129.774292,19.199444 
	C126.952995,23.926987 124.417366,28.469898 121.520462,33.060501 
	C115.466927,35.346779 109.807861,37.674984 104.073181,39.799061 
	C98.195175,41.976227 92.389084,44.821175 86.294571,45.846256 
	C71.486488,48.336945 56.629074,47.696186 41.722309,44.020454 
	C41.290787,43.974483 41.118164,43.956238 40.956383,43.550186 
	C40.641102,41.108578 40.314972,39.054768 40.399414,37.000748 
	C42.102463,37.163002 44.401833,37.051514 44.532074,37.530197 
	C45.872330,42.456184 50.581844,41.968246 53.897022,43.377224 
	C56.811405,44.615864 60.192604,44.756138 64.506058,45.605732 
	C62.780231,39.475163 58.591335,34.898602 63.303162,30.269018 
	C64.445297,34.585770 65.311920,38.629093 66.178535,42.672421 
	C66.609390,42.547871 67.040237,42.423317 67.471092,42.298767 
	C68.651192,35.535320 69.831299,28.771875 71.034203,21.777826 
	C71.057007,21.547222 71.106659,21.086432 71.386246,21.032845 
	C71.807564,20.300650 71.949295,19.622042 72.135231,18.579185 
	C72.311653,17.049028 72.443878,15.883122 72.576096,14.717216 
	C72.576096,14.717216 72.608612,14.719614 72.996826,14.708557 
	C73.688477,14.029864 73.991928,13.362229 74.295372,12.694595 
	C74.295372,12.694595 74.523514,12.443732 74.904373,12.238570 
	C75.484268,11.634679 75.683296,11.235950 75.882324,10.837220 
	C75.882324,10.837221 75.789429,10.906199 76.073341,10.848940 
	C76.499054,10.434878 76.640854,10.078076 76.782661,9.721275 
	C76.782661,9.721276 76.845413,9.833360 77.097351,9.811209 
	C77.499855,9.436818 77.650421,9.084578 77.800995,8.732338 
	C77.800995,8.732338 77.738190,8.766613 78.098267,8.889466 
	C78.962410,9.033159 79.466476,9.053998 80.362762,9.061457 
	C83.847771,8.340736 86.940559,7.633395 90.048920,7.248466 
	C89.034454,11.039648 88.004417,14.508419 86.958839,18.352482 
	C86.946579,19.478024 86.949860,20.228273 86.972214,20.992817 
	C86.991287,21.007107 86.973000,20.963638 86.742157,21.066862 
	C86.324280,21.445070 86.137238,21.720055 85.677414,22.246777 
	C83.775826,27.705431 82.143349,32.912052 83.776039,39.437965 
	C86.809364,32.632999 89.402740,26.815008 92.215729,20.886139 
	C92.708046,20.570950 92.892632,20.305374 93.274658,19.858601 
	C94.359955,18.818825 95.159683,17.898983 95.970421,16.981903 
	C95.981430,16.984661 95.979210,16.953466 96.325256,16.930450 
	C99.449303,14.609440 102.227287,12.311443 105.005280,10.013449 
z"/>
<path fill="#A85720" opacity="1.000000" stroke="none" 
	d="
M40.945538,43.937988 
	C41.118164,43.956238 41.290787,43.974483 41.727547,44.380638 
	C45.045673,48.706886 48.099667,52.645214 51.263123,56.724705 
	C45.153870,56.143864 39.113655,54.827190 33.183491,55.210987 
	C27.042393,55.608437 21.008024,57.655037 14.996716,58.625854 
	C20.194813,56.510574 25.316977,54.731380 30.454815,52.998676 
	C32.300541,52.376217 34.184032,51.865738 36.050285,51.304153 
	C36.193756,51.015438 36.337227,50.726730 36.717319,49.790359 
	C36.490807,48.474617 36.027672,47.806538 35.564537,47.138458 
	C35.345501,46.743446 35.126461,46.348438 35.022602,45.360840 
	C35.405014,44.516994 35.672249,44.265732 36.183220,44.086704 
	C36.992687,44.123737 37.558411,44.088528 38.477440,44.040028 
	C39.535675,43.997154 40.240608,43.967571 40.945538,43.937988 
z"/>
<path fill="#8D201C" opacity="1.000000" stroke="none" 
	d="
M86.974380,17.977190 
	C88.004417,14.508419 89.034454,11.039648 90.240677,7.016340 
	C91.372879,6.681362 92.328896,6.900922 93.284920,7.120482 
	C93.052963,10.122066 88.866875,12.249699 91.617493,16.324375 
	C90.856735,18.225870 89.023201,19.677853 91.996117,20.997017 
	C89.402740,26.815008 86.809364,32.632999 83.776039,39.437965 
	C82.143349,32.912052 83.775826,27.705431 85.907745,22.140793 
	C86.598236,21.509926 86.785614,21.236782 86.973000,20.963638 
	C86.973000,20.963638 86.991287,21.007107 87.233772,20.820438 
	C87.308968,19.748245 87.141670,18.862717 86.974380,17.977190 
z"/>
<path fill="#743C36" opacity="1.000000" stroke="none" 
	d="
M35.939480,44.014465 
	C35.672249,44.265732 35.405014,44.516994 35.002792,45.009430 
	C27.859919,39.908360 25.794397,31.437231 29.087347,26.089706 
	C30.949572,30.641083 33.146976,36.011662 35.724041,41.742439 
	C36.103699,42.102638 36.378513,42.366879 36.259109,42.625561 
	C36.072968,43.260983 36.006226,43.637726 35.939480,44.014465 
z"/>
<path fill="#672826" opacity="1.000000" stroke="none" 
	d="
M71.106659,21.086432 
	C71.106659,21.086432 71.057007,21.547222 70.719666,21.810253 
	C69.586258,22.716051 68.790192,23.358816 67.959915,23.678415 
	C67.286362,22.901976 66.647003,22.448702 65.974495,21.752682 
	C65.941338,21.509937 65.897469,21.021910 65.918762,20.761322 
	C65.927185,20.326904 65.914307,20.153076 65.913010,19.638159 
	C65.333672,18.523796 64.742760,17.750523 64.121117,16.648354 
	C64.063660,15.879725 64.036934,15.439998 64.044029,14.690334 
	C64.107735,13.965801 64.137627,13.551203 64.532944,13.095007 
	C65.594391,11.702077 66.290398,10.350744 67.256058,8.768460 
	C66.944740,7.700270 66.372131,6.161823 65.781258,6.154776 
	C63.862953,6.131895 61.937962,6.669965 60.015541,6.992050 
	C62.336731,6.095846 64.614029,4.921029 67.016777,4.542527 
	C67.487686,4.468345 68.971397,7.450675 69.050392,9.069060 
	C69.162773,11.371367 68.407623,13.716019 68.021164,16.843586 
	C69.002014,18.414650 69.984810,19.184708 70.992996,20.238832 
	C71.047813,20.710745 71.077232,20.898588 71.106659,21.086432 
z"/>
<path fill="#875F41" opacity="1.000000" stroke="none" 
	d="
M35.599312,51.208607 
	C34.184032,51.865738 32.300541,52.376217 30.454815,52.998676 
	C25.316977,54.731380 20.194813,56.510574 14.783316,58.637093 
	C14.500170,59.002773 14.071970,59.030746 13.696745,59.024391 
	C12.822519,59.071117 12.323517,59.124203 11.824514,59.177284 
	C11.460276,59.126778 11.096037,59.076267 10.457432,58.998119 
	C17.338554,52.645767 25.863087,50.670895 35.599312,51.208607 
z"/>
<path fill="#702F2D" opacity="1.000000" stroke="none" 
	d="
M36.784119,29.337151 
	C39.587517,24.582172 42.390915,19.827194 45.538979,15.324471 
	C45.246765,17.387102 44.609886,19.197477 43.945259,21.226154 
	C43.917507,21.444458 43.867386,21.881710 43.523266,21.954023 
	C39.944046,24.779957 37.627277,27.922020 37.948521,32.523129 
	C38.167889,35.665085 38.005665,38.833683 37.767654,41.999718 
	C37.521259,42.009064 37.031986,42.070747 37.023663,41.598312 
	C36.938267,37.196301 36.861191,33.266727 36.784119,29.337151 
z"/>
<path fill="#96201A" opacity="1.000000" stroke="none" 
	d="
M43.973007,21.007853 
	C44.609886,19.197477 45.246765,17.387102 45.854424,15.209332 
	C45.825203,14.841937 45.857971,14.887747 46.212963,14.924207 
	C49.703262,12.686736 52.838566,10.412806 55.973869,8.138874 
	C56.343876,8.045003 56.713886,7.951132 57.764236,7.903157 
	C59.631084,8.296307 60.817589,8.643560 62.002502,9.242161 
	C61.999821,9.661001 61.998730,9.828495 61.628708,10.029707 
	C55.497520,13.711568 49.735264,17.359711 43.973007,21.007853 
z"/>
<path fill="#7B2621" opacity="1.000000" stroke="none" 
	d="
M93.620422,6.930031 
	C92.328896,6.900922 91.372879,6.681362 90.225098,6.693928 
	C86.940559,7.633395 83.847771,8.340736 80.241837,8.661628 
	C79.597527,8.030060 79.466362,7.784940 79.335190,7.539821 
	C79.335190,7.539821 79.481125,7.456955 79.829697,7.510317 
	C80.426811,7.311028 80.675362,7.058377 80.923912,6.805727 
	C85.676460,2.821185 91.757027,2.790321 93.620422,6.930031 
z"/>
<path fill="#702F2D" opacity="1.000000" stroke="none" 
	d="
M55.611294,8.058832 
	C52.838566,10.412806 49.703262,12.686736 46.188393,14.915606 
	C48.955456,12.573292 52.102089,10.276041 55.611294,8.058832 
z"/>
<path fill="#8D201C" opacity="1.000000" stroke="none" 
	d="
M104.779648,9.741236 
	C102.227287,12.311443 99.449303,14.609440 96.327393,16.504446 
	C95.948494,15.246573 95.913513,14.391692 95.878540,13.536811 
	C95.737579,13.224531 95.820030,12.990973 96.716125,12.865793 
	C98.812325,11.517178 100.318283,10.138907 101.824242,8.760635 
	C101.824242,8.760634 101.868950,8.774215 101.847778,8.762293 
	C102.735741,8.989923 103.644875,9.229473 104.779648,9.741236 
z"/>
<path fill="#82211F" opacity="1.000000" stroke="none" 
	d="
M62.004093,8.990814 
	C60.817589,8.643560 59.631084,8.296307 58.051174,7.919285 
	C58.212833,7.564168 58.767895,7.238820 59.669250,6.952761 
	C61.937962,6.669965 63.862953,6.131895 65.781258,6.154776 
	C66.372131,6.161823 66.944740,7.700270 66.986214,8.655032 
	C65.632324,8.837599 64.817940,8.902641 63.670326,8.976572 
	C62.892765,8.987245 62.448429,8.989030 62.004093,8.990814 
z"/>
<path fill="#7E1F1B" opacity="1.000000" stroke="none" 
	d="
M95.549850,13.640226 
	C95.913513,14.391692 95.948494,15.246573 95.981339,16.527462 
	C95.979210,16.953466 95.981430,16.984661 95.604370,16.993732 
	C94.481239,17.994715 93.735168,18.986626 92.989090,19.978537 
	C92.892632,20.305374 92.708046,20.570950 92.215729,20.886139 
	C89.023201,19.677853 90.856735,18.225870 91.929626,16.492146 
	C93.059875,15.373222 94.140518,14.558433 95.549850,13.640226 
z"/>
<path fill="#783430" opacity="1.000000" stroke="none" 
	d="
M70.967606,19.954762 
	C69.984810,19.184708 69.002014,18.414650 68.033234,17.263947 
	C69.355499,16.249371 70.663757,15.615444 72.274055,14.849367 
	C72.443878,15.883122 72.311653,17.049028 71.899734,18.690338 
	C71.402565,19.428749 71.185081,19.691755 70.967606,19.954762 
z"/>
<path fill="#743C36" opacity="1.000000" stroke="none" 
	d="
M36.487301,29.691032 
	C36.861191,33.266727 36.938267,37.196301 36.854736,41.660164 
	C36.694130,42.194450 36.378513,42.366879 36.378513,42.366879 
	C36.378513,42.366879 36.103699,42.102638 35.965813,41.971008 
	C35.948784,37.907894 36.069633,33.976402 36.487301,29.691032 
z"/>
<path fill="#7E1F1B" opacity="1.000000" stroke="none" 
	d="
M101.457932,8.776836 
	C100.318283,10.138907 98.812325,11.517178 96.920609,12.888348 
	C98.053772,11.518509 99.572693,10.155772 101.457932,8.776836 
z"/>
<path fill="#875F41" opacity="1.000000" stroke="none" 
	d="
M35.561848,47.458687 
	C36.027672,47.806538 36.490807,48.474617 36.898186,49.341869 
	C36.414673,48.953667 35.986916,48.366287 35.561848,47.458687 
z"/>
<path fill="#783430" opacity="1.000000" stroke="none" 
	d="
M73.933289,12.787425 
	C73.991928,13.362229 73.688477,14.029864 73.004776,14.722788 
	C72.940079,14.125470 73.255646,13.502863 73.933289,12.787425 
z"/>
<path fill="#783430" opacity="1.000000" stroke="none" 
	d="
M79.075859,7.594632 
	C79.466362,7.784940 79.597527,8.030060 79.849617,8.675007 
	C79.466476,9.053998 78.962410,9.033159 78.109856,8.855623 
	C78.113083,8.349098 78.464806,7.999271 79.075859,7.594632 
z"/>
<path fill="#783430" opacity="1.000000" stroke="none" 
	d="
M80.693527,6.877275 
	C80.675362,7.058377 80.426811,7.311028 79.908661,7.481940 
	C79.842598,7.119850 80.117294,6.969390 80.693527,6.877275 
z"/>
<path fill="#783430" opacity="1.000000" stroke="none" 
	d="
M77.512016,8.768302 
	C77.650421,9.084578 77.499855,9.436818 77.036659,9.790199 
	C76.890366,9.462315 77.056702,9.133290 77.512016,8.768302 
z"/>
<path fill="#783430" opacity="1.000000" stroke="none" 
	d="
M76.497688,9.768614 
	C76.640854,10.078076 76.499054,10.434878 76.044968,10.798525 
	C75.892693,10.475565 76.052704,10.145759 76.497688,9.768614 
z"/>
<path fill="#783430" opacity="1.000000" stroke="none" 
	d="
M75.502975,10.912543 
	C75.683296,11.235950 75.484268,11.634679 74.987465,12.213978 
	C74.834335,11.925654 74.978973,11.456760 75.502975,10.912543 
z"/>
<path fill="#AD873F" opacity="1.000000" stroke="none" 
	d="
M156.082062,40.093346 
	C154.314651,41.398411 152.547241,42.703472 150.189896,44.444141 
	C153.448685,48.029835 156.644180,51.545914 159.911865,55.732719 
	C159.615585,57.565891 159.247116,58.728333 158.657379,59.918068 
	C158.436096,59.945362 157.990524,59.995041 157.548340,59.992500 
	C156.224915,60.069530 155.343689,60.149094 154.172791,60.095360 
	C149.116928,54.339367 143.456024,50.005859 136.291580,47.486225 
	C135.810410,46.547539 135.369263,45.903770 134.965820,44.927521 
	C135.043396,44.375874 135.083221,44.156715 135.498260,43.955177 
	C139.240082,45.324955 142.606720,46.677109 146.132019,48.324524 
	C148.226807,50.055145 150.162933,51.490505 152.099060,52.925869 
	C152.455261,52.441525 152.811462,51.957180 153.167648,51.472836 
	C151.120880,49.972267 149.074097,48.471699 146.771484,46.755993 
	C148.076492,42.018219 152.327927,40.882256 156.012512,39.281296 
	C156.047653,39.732716 156.064850,39.913029 156.082062,40.093346 
M154.554535,56.869034 
	C155.232407,56.979317 155.910263,57.089600 156.588135,57.199875 
	C156.108658,56.404781 155.629181,55.609688 155.149689,54.814590 
	C154.846909,55.323605 154.544128,55.832623 154.554535,56.869034 
z"/>
<path fill="#225C48" opacity="1.000000" stroke="none" 
	d="
M182.236359,102.395271 
	C181.380249,103.125641 180.588028,103.552498 179.367188,103.614639 
	C176.640915,97.493744 174.343277,91.737556 172.032257,85.625587 
	C171.350204,83.829079 170.681549,82.388344 170.026489,80.668335 
	C170.050003,80.202911 170.059921,80.016769 170.066833,79.696815 
	C170.063843,79.563011 170.082916,79.291481 170.087387,78.981873 
	C170.079193,78.466232 170.066544,78.260193 170.046478,78.028137 
	C170.039062,78.002113 170.032257,78.053040 170.310165,78.038406 
	C170.994064,77.710678 171.400055,77.397583 171.878113,76.736542 
	C172.002472,75.919495 172.054794,75.450394 172.107117,74.981293 
	C175.504822,84.018112 178.902542,93.054932 182.236359,102.395271 
z"/>
<path fill="#617836" opacity="1.000000" stroke="none" 
	d="
M172.065323,74.620590 
	C172.054794,75.450394 172.002472,75.919495 171.607178,76.742340 
	C170.853561,77.415062 170.442917,77.734047 170.032257,78.053040 
	C170.032257,78.053040 170.039062,78.002113 169.769745,77.826126 
	C168.003342,75.430794 166.506241,73.211456 165.004578,70.996063 
	C165.000000,71.000000 165.010361,70.993904 165.006668,70.645432 
	C164.336426,69.195206 163.669876,68.093437 163.001663,66.996033 
	C163.000000,67.000389 163.009232,66.997154 162.973938,66.649239 
	C161.585312,64.164474 160.231979,62.027626 158.878662,59.890778 
	C159.247116,58.728333 159.615585,57.565891 160.048096,56.040894 
	C162.390488,58.959831 164.756638,62.184715 166.920181,65.540222 
	C168.743484,68.368004 170.331406,71.347542 172.065323,74.620590 
z"/>
<path fill="#9A7C45" opacity="1.000000" stroke="none" 
	d="
M159.062317,22.256758 
	C164.491943,22.549501 168.550461,25.381783 171.525406,29.624619 
	C171.980057,30.273045 170.324066,32.401398 169.150208,33.663521 
	C168.114166,33.335262 167.572174,33.188755 167.009369,33.017666 
	C166.988541,32.993088 166.945389,32.945232 166.967529,32.561100 
	C166.556778,26.494860 162.493088,25.975441 158.103210,25.684273 
	C158.106766,25.443670 158.169098,24.966471 158.443481,24.927811 
	C158.832703,24.011686 158.947510,23.134222 159.062317,22.256758 
z"/>
<path fill="#854C2E" opacity="1.000000" stroke="none" 
	d="
M158.702240,22.116795 
	C158.947510,23.134222 158.832703,24.011686 158.222885,24.680801 
	C156.479187,23.913944 155.273331,23.023640 153.974167,22.855793 
	C149.010590,22.214533 144.016998,21.805832 139.033585,20.928684 
	C139.015167,20.038561 138.997772,19.530043 138.980377,19.021523 
	C141.790939,18.972153 144.671616,18.510565 147.394943,18.973909 
	C151.106873,19.605452 154.698776,20.942356 158.702240,22.116795 
z"/>
<path fill="#7E1F1B" opacity="1.000000" stroke="none" 
	d="
M138.738953,18.951836 
	C138.997772,19.530043 139.015167,20.038561 138.840851,20.999275 
	C138.436142,21.626459 138.243423,21.821482 137.639771,22.026814 
	C134.448761,21.913822 131.282547,22.778303 130.059982,19.014812 
	C131.511246,16.824352 132.962509,14.633891 135.068390,12.221052 
	C136.251541,12.033928 136.780060,12.069181 137.308594,12.104433 
	C136.379181,14.335300 135.449783,16.566168 134.978790,19.231190 
	C136.296036,19.449598 137.154861,19.233852 138.013687,19.018106 
	C138.174973,18.972786 138.336258,18.927467 138.738953,18.951836 
z"/>
<path fill="#8D201C" opacity="1.000000" stroke="none" 
	d="
M137.525909,12.078087 
	C136.780060,12.069181 136.251541,12.033928 135.324951,11.976376 
	C135.232178,10.262251 135.537491,8.570427 135.878922,6.678399 
	C133.704559,6.109386 131.740112,5.595306 129.392075,5.011562 
	C130.852600,4.605381 132.696732,4.268865 134.969727,3.887617 
	C135.398621,3.842884 135.741211,3.789748 136.040619,4.144644 
	C136.702454,4.626133 137.064880,4.752727 137.427307,4.879322 
	C138.012222,5.710901 138.597137,6.542478 138.808228,7.920323 
	C138.321625,9.412661 138.208847,10.358728 138.096069,11.304796 
	C138.154205,11.636810 138.036606,11.885791 137.525909,12.078087 
z"/>
<path fill="#9A7C45" opacity="1.000000" stroke="none" 
	d="
M165.962326,36.189991 
	C165.962326,36.189991 165.732864,36.268684 165.338684,36.238144 
	C164.639206,36.515900 164.333893,36.824192 164.028580,37.132484 
	C164.028580,37.132488 164.040421,37.046101 163.695557,37.045174 
	C161.210571,37.670692 159.070465,38.297138 157.017059,38.593891 
	C160.384308,36.491207 163.664856,34.718220 166.945389,32.945232 
	C166.945389,32.945232 166.988541,32.993088 166.860611,33.319950 
	C166.475891,34.494537 166.219101,35.342262 165.962326,36.189991 
z"/>
<path fill="#88703E" opacity="1.000000" stroke="none" 
	d="
M156.930344,38.923592 
	C159.070465,38.297138 161.210571,37.670692 163.736206,37.060966 
	C161.697525,38.067139 159.273361,39.056583 156.465622,40.069687 
	C156.064850,39.913029 156.047653,39.732716 156.245819,39.252213 
	C156.461166,38.952023 156.930344,38.923592 156.930344,38.923592 
z"/>
<path fill="#88703E" opacity="1.000000" stroke="none" 
	d="
M166.280624,36.128246 
	C166.219101,35.342262 166.475891,34.494537 166.881439,33.344528 
	C167.572174,33.188755 168.114166,33.335262 168.821930,33.717598 
	C168.191452,34.657787 167.395187,35.362144 166.280624,36.128246 
z"/>
<path fill="#854C2E" opacity="1.000000" stroke="none" 
	d="
M137.640808,18.942745 
	C137.154861,19.233852 136.296036,19.449598 135.233795,19.450096 
	C135.776230,19.112360 136.522079,18.989872 137.640808,18.942745 
z"/>
<path fill="#7E1F1B" opacity="1.000000" stroke="none" 
	d="
M138.448364,11.129732 
	C138.208847,10.358728 138.321625,9.412661 138.706375,8.227153 
	C138.919128,8.976699 138.859894,9.965684 138.448364,11.129732 
z"/>
<path fill="#7E1F1B" opacity="1.000000" stroke="none" 
	d="
M137.296341,4.594207 
	C137.064880,4.752727 136.702454,4.626133 136.165192,4.265183 
	C136.382034,4.123583 136.773712,4.216339 137.296341,4.594207 
z"/>
<path fill="#88703E" opacity="1.000000" stroke="none" 
	d="
M164.366577,37.078827 
	C164.333893,36.824192 164.639206,36.515900 165.272186,36.136711 
	C165.301407,36.385605 165.002991,36.705387 164.366577,37.078827 
z"/>
<path fill="#E48BB7" opacity="1.000000" stroke="none" 
	d="
M145.078308,141.984970 
	C148.325012,136.956787 153.351883,139.116135 157.611893,139.233093 
	C164.561783,139.423920 170.107819,143.376373 175.161926,147.700012 
	C181.526489,153.144669 183.082596,163.553650 179.044891,170.941833 
	C174.860962,178.597565 164.466278,182.862930 155.960236,180.485794 
	C147.842743,178.217255 142.435333,172.393341 137.182190,166.345901 
	C135.993134,164.977036 134.824509,163.590408 133.336945,161.688995 
	C130.298553,154.444260 125.496086,149.975220 120.679199,149.682190 
	C121.717216,151.204514 122.759621,152.723862 123.802017,154.243225 
	C123.570534,154.717926 123.339050,155.192627 123.107567,155.667328 
	C117.554550,154.466751 112.001534,153.266190 106.523621,151.666504 
	C106.990730,149.485718 107.382744,147.704041 107.895203,145.668549 
	C108.094734,145.049637 108.173813,144.684586 108.452164,144.244003 
	C108.651443,144.168488 108.995186,143.916489 108.995186,143.916489 
	C118.475571,136.073746 128.724487,136.622009 139.348175,141.114349 
	C140.254120,141.497437 141.225967,141.724609 142.718994,142.334656 
	C146.164093,144.812347 149.057404,146.979614 151.950714,149.146881 
	C152.357285,148.575424 152.763840,148.003983 153.170410,147.432541 
	C150.473038,145.616684 147.775681,143.800827 145.078308,141.984970 
M154.775620,151.353500 
	C154.729889,151.714981 154.684174,152.076462 154.638443,152.437943 
	C154.895447,152.441833 155.152451,152.445709 155.409470,152.449585 
	C155.367615,152.088425 155.325760,151.727280 154.775620,151.353500 
M118.492241,148.592438 
	C118.492241,148.592438 118.422035,148.480713 118.492241,148.592438 
z"/>
<path fill="#066B77" opacity="1.000000" stroke="none" 
	d="
M178.954468,105.935959 
	C179.320480,110.653877 179.686493,115.371796 179.818176,120.543800 
	C179.583832,120.997887 179.102570,121.111176 178.781769,121.213684 
	C173.769501,124.665504 169.006729,127.921425 164.428253,131.418640 
	C162.976028,132.527893 162.015167,134.280441 160.829453,135.738617 
	C159.807144,135.791443 158.784821,135.844269 157.112030,135.848175 
	C156.097031,135.808945 155.732498,135.818619 155.367966,135.828308 
	C155.367966,135.828308 155.186676,135.400360 155.092163,134.781891 
	C154.997635,130.020554 154.997635,125.877708 154.997635,121.769981 
	C149.299179,123.077393 143.115829,124.496048 137.018066,125.574738 
	C137.743271,124.783432 138.327698,124.204674 139.030869,123.899971 
	C148.997894,119.580933 159.004929,115.353424 168.947067,110.978264 
	C172.361328,109.475777 175.623062,107.626701 178.954468,105.935959 
z"/>
<path fill="#8A5D8C" opacity="1.000000" stroke="none" 
	d="
M148.965332,135.928421 
	C141.360580,140.478851 134.132004,136.120346 126.375313,134.570312 
	C126.010551,132.848404 126.037544,131.547333 126.505829,130.170380 
	C130.194107,130.036819 133.441116,129.979126 136.942200,129.880890 
	C137.443619,129.619125 137.690948,129.397903 138.333130,129.099167 
	C140.787796,128.622513 142.847610,128.223358 145.059052,128.167572 
	C146.462219,130.983429 147.713776,133.455917 148.965332,135.928421 
z"/>
<path fill="#595B84" opacity="1.000000" stroke="none" 
	d="
M161.148300,135.950958 
	C162.015167,134.280441 162.976028,132.527893 164.428253,131.418640 
	C169.006729,127.921425 173.769501,124.665504 178.755615,121.620300 
	C178.383392,124.596848 178.108521,127.454117 176.956360,129.897751 
	C175.294983,133.421402 172.996597,136.644684 170.970062,139.996155 
	C167.802429,138.718536 164.634781,137.440903 161.148300,135.950958 
z"/>
<path fill="#AF6D99" opacity="1.000000" stroke="none" 
	d="
M106.448517,152.065613 
	C112.001534,153.266190 117.554550,154.466751 123.107567,155.667328 
	C123.339050,155.192627 123.570534,154.717926 123.802017,154.243225 
	C122.759621,152.723862 121.717216,151.204514 120.679199,149.682190 
	C125.496086,149.975220 130.298553,154.444260 133.043259,161.519257 
	C133.039612,162.350494 133.020126,162.828491 132.994446,163.664307 
	C132.817764,164.014084 132.647308,164.006027 132.084274,163.665161 
	C129.160522,158.881088 125.460861,157.670502 120.321411,157.728638 
	C115.584343,157.782227 110.826248,155.976761 106.043678,154.679657 
	C106.156128,153.601303 106.302322,152.833450 106.448517,152.065613 
z"/>
<path fill="#484460" opacity="1.000000" stroke="none" 
	d="
M171.150757,140.249268 
	C172.996597,136.644684 175.294983,133.421402 176.956360,129.897751 
	C178.108521,127.454117 178.383392,124.596848 179.076416,121.517784 
	C179.102570,121.111176 179.583832,120.997887 179.826874,120.947563 
	C181.227509,120.629547 182.385117,120.361855 183.906052,120.090469 
	C183.405472,127.538193 182.109604,134.788849 175.774139,139.924591 
	C175.247009,140.351898 175.193054,141.362900 174.849396,142.460297 
	C173.630157,142.046051 172.480804,141.274216 171.150757,140.249268 
z"/>
<path fill="#115060" opacity="1.000000" stroke="none" 
	d="
M144.907425,127.824219 
	C142.847610,128.223358 140.787796,128.622513 138.100677,129.024719 
	C137.473373,129.027786 136.994598,128.929428 136.698242,128.653229 
	C133.269592,128.248642 130.137299,128.120270 127.003120,127.741943 
	C127.001221,127.491997 126.995728,126.992111 127.406921,126.976486 
	C130.856232,126.612152 133.894363,126.263428 136.932480,125.914703 
	C143.115829,124.496048 149.299179,123.077393 154.997635,121.769981 
	C154.997635,125.877708 154.997635,130.020554 155.009491,134.564697 
	C153.968933,134.953613 152.916504,134.941223 151.475510,134.449829 
	C151.086929,131.423019 151.086929,128.875198 151.086929,125.442543 
	C148.882370,126.292213 146.894897,127.058212 144.907425,127.824219 
z"/>
<path fill="#70527C" opacity="1.000000" stroke="none" 
	d="
M126.064537,130.246262 
	C126.037544,131.547333 126.010551,132.848404 125.968315,134.536652 
	C120.971756,135.939560 115.990440,136.955276 110.548523,137.624268 
	C109.866348,134.405807 109.644768,131.534119 109.402466,128.393845 
	C110.695511,128.275848 111.792336,128.175766 113.160919,128.351593 
	C117.643303,129.167099 121.853920,129.706680 126.064537,130.246262 
z"/>
<path fill="#145A51" opacity="1.000000" stroke="none" 
	d="
M112.889153,128.075684 
	C111.792336,128.175766 110.695511,128.275848 109.402466,128.393845 
	C109.644768,131.534119 109.866348,134.405807 110.199577,137.713959 
	C109.890091,139.202637 109.468948,140.254868 108.756790,141.863663 
	C108.394814,143.053329 108.323853,143.686417 108.252892,144.319519 
	C108.173813,144.684586 108.094734,145.049637 107.589752,145.681442 
	C106.756104,145.978058 106.348358,146.007935 105.945053,145.603577 
	C105.967461,140.103165 105.985420,135.036957 106.005020,129.586487 
	C105.645973,127.470184 105.285278,125.738121 105.199829,123.897743 
	C105.994026,123.511086 106.512985,123.232750 107.423248,122.978798 
	C112.552818,124.338402 117.291092,125.673607 121.742569,127.298691 
	C118.600235,127.750931 115.744698,127.913307 112.889153,128.075684 
z"/>
<path fill="#8A6B96" opacity="1.000000" stroke="none" 
	d="
M145.059052,128.167572 
	C146.894897,127.058212 148.882370,126.292213 151.086929,125.442543 
	C151.086929,128.875198 151.086929,131.423019 151.085419,134.382141 
	C150.594620,135.165619 150.105331,135.537796 149.290680,135.919189 
	C147.713776,133.455917 146.462219,130.983429 145.059052,128.167572 
z"/>
<path fill="#C4709B" opacity="1.000000" stroke="none" 
	d="
M144.719879,141.992065 
	C147.775681,143.800827 150.473038,145.616684 153.170410,147.432541 
	C152.763840,148.003983 152.357285,148.575424 151.950714,149.146881 
	C149.057404,146.979614 146.164093,144.812347 143.099976,142.355896 
	C143.406601,142.044189 143.884018,142.021683 144.719879,141.992065 
z"/>
<path fill="#8A6B96" opacity="1.000000" stroke="none" 
	d="
M155.133881,135.960449 
	C155.732498,135.818619 156.097031,135.808945 156.728394,135.874603 
	C156.296753,135.997482 155.598282,136.045044 155.133881,135.960449 
z"/>
<path fill="#4C466A" opacity="1.000000" stroke="none" 
	d="
M108.452164,144.244003 
	C108.323853,143.686417 108.394814,143.053329 108.722778,142.212860 
	C108.978928,142.430115 108.978065,142.854752 108.986191,143.597931 
	C108.995186,143.916489 108.651443,144.168488 108.452164,144.244003 
z"/>
<path fill="#D39B34" opacity="1.000000" stroke="none" 
	d="
M38.062931,82.849716 
	C35.375446,81.718910 32.687965,80.588104 30.090271,79.495079 
	C31.091629,78.860214 32.244438,78.129326 33.397243,77.398438 
	C33.378887,76.979263 33.360535,76.560097 33.342178,76.140923 
	C27.526184,75.435349 21.710194,74.729767 15.453003,74.047844 
	C4.334995,72.194916 4.150521,71.777168 10.109501,62.812241 
	C10.470359,62.269356 10.949430,61.805042 12.010261,61.160629 
	C13.100060,61.028515 13.553092,61.039936 14.188424,61.366837 
	C15.392494,62.145897 16.371302,62.785385 17.442406,63.047005 
	C37.357746,67.911369 57.637802,69.122337 77.996323,69.377365 
	C76.616325,74.102722 75.285767,78.465210 73.738541,82.891129 
	C73.521866,82.954559 73.083679,83.063499 72.847046,83.130409 
	C72.309227,83.360474 72.097580,83.602051 71.508682,83.936066 
	C62.023262,83.654907 53.004627,83.359756 43.854500,82.830734 
	C43.155567,82.723297 42.588127,82.849731 41.623844,82.975487 
	C40.172310,82.933105 39.117622,82.891403 38.062931,82.849716 
z"/>
<path fill="#A85720" opacity="1.000000" stroke="none" 
	d="
M14.006125,61.051361 
	C13.553092,61.039936 13.100060,61.028515 12.307219,60.993713 
	C11.956772,60.568947 11.946132,60.167557 11.880003,59.471729 
	C12.323517,59.124203 12.822519,59.071117 13.679721,59.360340 
	C14.027323,60.152218 14.016725,60.601791 14.006125,61.051361 
z"/>
<path fill="#8D201C" opacity="1.000000" stroke="none" 
	d="
M118.772507,4.743127 
	C115.564667,6.232339 112.129951,7.467965 108.341034,8.830565 
	C110.154625,4.273608 114.822624,5.498179 118.772507,4.743127 
z"/>
<path fill="#208867" opacity="1.000000" stroke="none" 
	d="
M122.029366,127.008820 
	C117.291092,125.673607 112.552818,124.338402 107.385132,122.644928 
	C107.732796,121.531174 108.672569,120.009903 109.262543,120.135231 
	C117.937592,121.978165 125.046883,117.951614 131.159134,113.098480 
	C136.177277,109.114075 140.290833,107.237442 146.941376,108.743896 
	C156.540115,110.918167 170.035034,101.125984 169.264069,85.900383 
	C170.358704,85.862091 171.202179,85.921730 172.045639,85.981369 
	C174.343277,91.737556 176.640915,97.493744 179.004639,103.618500 
	C179.044724,104.420769 179.018707,104.854477 178.973587,105.612068 
	C175.623062,107.626701 172.361328,109.475777 168.947067,110.978264 
	C159.004929,115.353424 148.997894,119.580933 139.030869,123.899971 
	C138.327698,124.204674 137.743271,124.783432 137.018066,125.574730 
	C133.894363,126.263428 130.856232,126.612152 127.151672,126.974777 
	C126.315353,126.999237 126.145477,127.009804 125.580574,127.010483 
	C124.133492,127.003326 123.081429,127.006073 122.029366,127.008820 
z"/>
<path fill="#046B78" opacity="1.000000" stroke="none" 
	d="
M106.003380,129.970749 
	C105.985420,135.036957 105.967461,140.103165 105.781342,145.836380 
	C105.080193,146.699280 104.547211,146.895172 103.548836,147.058533 
	C91.409744,145.750305 79.727783,144.544922 68.065262,143.174088 
	C60.345249,142.266678 52.653118,141.122040 44.948505,140.083588 
	C44.513538,140.039368 44.078571,139.995148 43.317307,139.913116 
	C41.650162,134.534546 40.309319,129.193802 38.929752,123.457191 
	C38.891029,123.061325 38.951599,123.031281 39.406708,123.022446 
	C41.169788,123.149651 42.496712,123.187698 43.782909,123.436371 
	C64.335464,127.410072 84.889053,131.351456 106.003380,129.970749 
z"/>
<path fill="#5C5884" opacity="1.000000" stroke="none" 
	d="
M45.001251,140.423645 
	C52.653118,141.122040 60.345249,142.266678 68.065262,143.174088 
	C79.727783,144.544922 91.409744,145.750305 103.537453,147.423920 
	C101.839531,152.037292 99.687599,156.252747 97.174377,161.175949 
	C100.596825,158.798050 103.337128,156.894119 106.077423,154.990173 
	C110.826248,155.976761 115.584343,157.782227 120.321411,157.728638 
	C125.460861,157.670502 129.160522,158.881088 131.829346,163.641998 
	C122.588524,164.582901 113.170235,166.088440 103.839821,165.663712 
	C84.296585,164.774094 64.810478,162.775940 50.039799,147.482864 
	C48.118511,145.493637 46.703514,143.015427 45.001251,140.423645 
z"/>
<path fill="#799D3F" opacity="1.000000" stroke="none" 
	d="
M43.985996,83.064606 
	C53.004627,83.359756 62.023262,83.654907 71.762138,83.979256 
	C72.652420,84.028893 72.822449,84.049339 72.993408,84.530151 
	C73.205849,89.447197 73.640320,93.911026 73.497749,98.356346 
	C73.452950,99.753059 71.857857,101.100044 70.836327,102.680183 
	C72.248207,103.183731 74.189156,103.636185 75.890770,104.539474 
	C78.397247,105.870010 80.733139,107.521912 83.098495,109.266228 
	C83.055290,109.495529 82.989532,109.957550 82.545296,109.946144 
	C72.225197,109.951401 62.310871,110.511703 52.485401,109.816353 
	C44.314857,109.238129 36.248756,107.184036 28.136395,105.783691 
	C28.136395,105.783691 28.138630,105.310120 28.261469,104.793243 
	C30.782818,101.510223 33.181328,98.744080 35.579838,95.977936 
	C35.393559,95.677010 35.207283,95.376083 35.021004,95.075157 
	C31.345146,97.650703 27.669291,100.226250 23.993435,102.801804 
	C22.936586,102.914200 21.879736,103.026604 20.033043,103.126404 
	C15.486705,102.088814 11.730207,101.063828 7.973711,100.038841 
	C7.933531,99.633400 7.893350,99.227951 7.922254,98.135605 
	C10.072077,90.711922 13.773498,85.348366 20.359137,82.199898 
	C21.494503,81.657120 22.153889,80.118729 23.033138,79.040230 
	C23.474508,79.018654 23.915880,78.997070 24.687191,78.940353 
	C25.017132,78.905205 25.054953,78.972786 25.161613,79.210251 
	C25.451630,79.705933 25.700466,79.854713 26.014786,79.894051 
	C29.752365,80.912964 33.489944,81.931885 37.645226,82.900253 
	C39.117622,82.891403 40.172310,82.933105 41.757313,83.202194 
	C42.853748,83.307922 43.419872,83.186256 43.985996,83.064606 
z"/>
<path fill="#228966" opacity="1.000000" stroke="none" 
	d="
M27.960190,106.152962 
	C36.248756,107.184036 44.314857,109.238129 52.485401,109.816353 
	C62.310871,110.511703 72.225197,109.951401 82.974533,109.954437 
	C89.097725,109.170486 93.058128,111.714989 96.554062,115.110031 
	C99.472031,117.943787 102.143799,121.031059 104.924591,124.006058 
	C105.285278,125.738121 105.645973,127.470184 106.005020,129.586487 
	C84.889053,131.351456 64.335464,127.410072 43.782909,123.436371 
	C42.496712,123.187698 41.169788,123.149651 39.437565,123.008636 
	C38.996162,122.556824 38.979012,122.109993 39.193237,121.066292 
	C43.450092,118.693008 47.475571,116.916588 51.501049,115.140160 
	C51.287621,114.626053 51.074192,114.111946 50.860760,113.597839 
	C45.892986,115.379005 40.925217,117.160172 35.957443,118.941345 
	C35.466625,118.952652 34.975563,118.979942 34.485023,118.972588 
	C31.866247,118.933327 29.247602,118.885422 26.628910,118.840508 
	C26.721481,115.493439 26.764591,112.143715 26.943674,108.801277 
	C26.985062,108.028809 27.491529,107.281250 27.960190,106.152962 
z"/>
<path fill="#0F694D" opacity="1.000000" stroke="none" 
	d="
M36.018227,119.289215 
	C40.925217,117.160172 45.892986,115.379005 50.860760,113.597839 
	C51.074192,114.111946 51.287621,114.626053 51.501049,115.140160 
	C47.475571,116.916588 43.450092,118.693008 39.186813,120.731003 
	C37.992344,120.540741 37.035679,120.088913 36.018227,119.289215 
z"/>
<path fill="#5D8333" opacity="1.000000" stroke="none" 
	d="
M24.153158,103.089676 
	C27.669291,100.226250 31.345146,97.650703 35.021004,95.075157 
	C35.207283,95.376083 35.393559,95.677010 35.579838,95.977936 
	C33.181328,98.744080 30.782818,101.510223 28.239979,104.557434 
	C27.924284,104.868782 27.752920,104.899055 27.321701,104.946960 
	C26.145525,104.435570 25.229202,103.906555 24.153158,103.089676 
z"/>
<path fill="#A08144" opacity="1.000000" stroke="none" 
	d="
M25.911644,79.702423 
	C25.700466,79.854713 25.451630,79.705933 25.182056,79.243134 
	C25.392441,79.106888 25.629995,79.264297 25.911644,79.702423 
z"/>
<path fill="#697B3B" opacity="1.000000" stroke="none" 
	d="
M22.709938,78.883652 
	C22.153889,80.118729 21.494503,81.657120 20.359137,82.199898 
	C13.773498,85.348366 10.072077,90.711922 7.896265,97.831085 
	C7.398669,98.149712 6.996148,98.085945 6.290298,97.971375 
	C7.537122,94.234772 8.620775,90.244255 10.771898,86.950996 
	C12.820769,83.814285 15.983674,81.405243 18.800289,78.391930 
	C20.091431,78.314072 21.239084,78.520569 22.709938,78.883652 
z"/>
<path fill="#2A8660" opacity="1.000000" stroke="none" 
	d="
M7.822224,100.387497 
	C11.730207,101.063828 15.486705,102.088814 19.640663,103.196854 
	C19.456419,103.698524 18.874716,104.117119 17.809629,104.797134 
	C15.880657,106.040695 14.435069,107.022858 12.989481,108.005013 
	C12.440058,108.171570 11.890634,108.338120 11.169206,108.741028 
	C5.679944,107.928978 7.044600,104.183517 7.822224,100.387497 
z"/>
<path fill="#1C6147" opacity="1.000000" stroke="none" 
	d="
M13.188463,108.249306 
	C14.435069,107.022858 15.880657,106.040695 17.662493,105.027588 
	C16.461643,106.162292 14.924544,107.327942 13.188463,108.249306 
z"/>
<path fill="#CB6827" opacity="1.000000" stroke="none" 
	d="
M14.188424,61.366837 
	C14.016725,60.601791 14.027323,60.152218 14.054945,59.366699 
	C14.071970,59.030746 14.500170,59.002773 14.713572,58.991539 
	C21.008024,57.655037 27.042393,55.608437 33.183491,55.210987 
	C39.113655,54.827190 45.153870,56.143864 51.263123,56.724705 
	C48.099667,52.645214 45.045673,48.706886 41.986443,44.408371 
	C56.629074,47.696186 71.486488,48.336945 86.294571,45.846256 
	C92.389084,44.821175 98.195175,41.976227 104.073181,39.799061 
	C109.807861,37.674984 115.466927,35.346779 121.746674,33.294586 
	C123.074471,33.291325 124.246498,33.332096 124.489433,32.876965 
	C127.472374,27.288364 132.791580,24.699657 138.070969,22.036539 
	C138.243423,21.821482 138.436142,21.626459 138.841858,21.380878 
	C144.016998,21.805832 149.010590,22.214533 153.974167,22.855793 
	C155.273331,23.023640 156.479187,23.913944 157.948486,24.719463 
	C158.169098,24.966471 158.106766,25.443670 157.795074,25.847031 
	C150.011215,31.840715 142.539047,37.431038 134.648041,43.013737 
	C130.544785,44.549084 126.860382,46.092056 122.643700,47.857944 
	C110.050888,37.407074 86.574959,52.021557 78.768829,68.986534 
	C78.527817,68.998100 78.045753,69.014496 78.045753,69.014496 
	C57.637802,69.122337 37.357746,67.911369 17.442406,63.047005 
	C16.371302,62.785385 15.392494,62.145897 14.188424,61.366837 
z"/>
<path fill="#C42A1F" opacity="1.000000" stroke="none" 
	d="
M43.945259,21.226154 
	C49.735264,17.359711 55.497520,13.711568 61.670418,10.348629 
	C62.711487,11.089790 63.341908,11.545748 64.005753,12.288074 
	C64.081970,12.761830 64.124748,12.949218 64.167519,13.136605 
	C64.137627,13.551203 64.107735,13.965801 63.749527,14.720450 
	C63.287056,15.710795 63.152897,16.361090 63.019844,17.385012 
	C63.012775,18.505842 63.004601,19.253042 62.663658,20.050497 
	C62.546963,21.067347 62.763039,22.033945 62.987930,23.437748 
	C63.007050,25.915167 63.017349,27.955381 63.027645,29.995594 
	C58.591335,34.898602 62.780231,39.475163 64.506058,45.605732 
	C60.192604,44.756138 56.811405,44.615864 53.897022,43.377224 
	C50.581844,41.968246 45.872330,42.456184 44.532074,37.530197 
	C44.401833,37.051514 42.102463,37.163002 40.369087,36.662960 
	C41.241257,31.510824 42.554321,26.696268 43.867386,21.881710 
	C43.867386,21.881710 43.917507,21.444458 43.945259,21.226154 
z"/>
<path fill="#96201A" opacity="1.000000" stroke="none" 
	d="
M62.996429,20.000244 
	C63.004601,19.253042 63.012775,18.505842 63.303032,17.376787 
	C63.774033,16.989038 63.962944,16.983145 64.151855,16.977249 
	C64.742760,17.750523 65.333672,18.523796 65.764099,19.738697 
	C65.549316,20.286718 65.421371,20.438114 65.453941,20.491430 
	C65.572800,20.685966 65.745232,20.847771 65.897469,21.021908 
	C65.897469,21.021910 65.941338,21.509937 65.971130,22.082462 
	C66.665329,23.103853 67.329727,23.552719 67.994125,24.001583 
	C68.790192,23.358816 69.586258,22.716051 70.696869,22.040859 
	C69.831299,28.771875 68.651192,35.535320 67.471092,42.298767 
	C67.040237,42.423317 66.609390,42.547871 66.178535,42.672421 
	C65.311920,38.629093 64.445297,34.585770 63.303162,30.269018 
	C63.017349,27.955381 63.007050,25.915167 62.999420,23.062830 
	C63.000198,21.500551 62.998314,20.750399 62.996429,20.000244 
z"/>
<path fill="#912012" opacity="1.000000" stroke="none" 
	d="
M137.639771,22.026814 
	C132.791580,24.699657 127.472374,27.288364 124.489433,32.876965 
	C124.246498,33.332096 123.074471,33.291325 122.107956,33.246899 
	C124.417366,28.469898 126.952995,23.926987 129.774292,19.199444 
	C131.282547,22.778303 134.448761,21.913822 137.639771,22.026814 
z"/>
<path fill="#96201A" opacity="1.000000" stroke="none" 
	d="
M43.523266,21.954023 
	C42.554321,26.696268 41.241257,31.510824 39.958519,36.663170 
	C40.314972,39.054768 40.641102,41.108578 40.956383,43.550186 
	C40.240608,43.967571 39.535675,43.997154 38.441898,43.696999 
	C38.040051,42.908295 38.027050,42.449333 38.014046,41.990372 
	C38.005665,38.833683 38.167889,35.665085 37.948521,32.523129 
	C37.627277,27.922020 39.944046,24.779957 43.523266,21.954023 
z"/>
<path fill="#8D201C" opacity="1.000000" stroke="none" 
	d="
M93.274658,19.858601 
	C93.735168,18.986626 94.481239,17.994715 95.593369,16.990974 
	C95.159683,17.898983 94.359955,18.818825 93.274658,19.858601 
z"/>
<path fill="#96201A" opacity="1.000000" stroke="none" 
	d="
M70.992996,20.238831 
	C71.185081,19.691755 71.402565,19.428749 71.855545,19.054588 
	C71.949295,19.622042 71.807564,20.300650 71.386246,21.032845 
	C71.077232,20.898588 71.047813,20.710745 70.992996,20.238831 
z"/>
<path fill="#7E1F1B" opacity="1.000000" stroke="none" 
	d="
M86.958839,18.352482 
	C87.141670,18.862717 87.308968,19.748245 87.214699,20.806149 
	C86.949860,20.228273 86.946579,19.478024 86.958839,18.352482 
z"/>
<path fill="#7E1F1B" opacity="1.000000" stroke="none" 
	d="
M86.742157,21.066862 
	C86.785614,21.236782 86.598236,21.509926 86.180527,21.889053 
	C86.137238,21.720055 86.324280,21.445070 86.742157,21.066862 
z"/>
<path fill="#551302" opacity="1.000000" stroke="none" 
	d="
M37.767654,41.999718 
	C38.027050,42.449333 38.040051,42.908295 38.088593,43.710289 
	C37.558411,44.088528 36.992687,44.123737 36.183220,44.086704 
	C36.006226,43.637726 36.072968,43.260983 36.259109,42.625561 
	C36.378513,42.366879 36.694130,42.194450 36.863060,42.132599 
	C37.031986,42.070747 37.521259,42.009064 37.767654,41.999718 
z"/>
<path fill="#96201A" opacity="1.000000" stroke="none" 
	d="
M64.532944,13.095007 
	C64.124748,12.949218 64.081970,12.761830 64.018806,11.909327 
	C64.000130,10.485368 64.001839,9.726525 64.003548,8.967684 
	C64.817940,8.902641 65.632324,8.837599 66.716568,8.885984 
	C66.290398,10.350744 65.594391,11.702077 64.532944,13.095007 
z"/>
<path fill="#783430" opacity="1.000000" stroke="none" 
	d="
M67.959915,23.678417 
	C67.329727,23.552719 66.665329,23.103853 66.004288,22.325207 
	C66.647003,22.448702 67.286362,22.901976 67.959915,23.678417 
z"/>
<path fill="#C02B1F" opacity="1.000000" stroke="none" 
	d="
M64.121117,16.648352 
	C63.962944,16.983145 63.774033,16.989038 63.301929,17.003159 
	C63.152897,16.361090 63.287056,15.710795 63.715714,15.030386 
	C64.036934,15.439998 64.063660,15.879725 64.121117,16.648352 
z"/>
<path fill="#82211F" opacity="1.000000" stroke="none" 
	d="
M65.918762,20.761322 
	C65.745232,20.847771 65.572800,20.685966 65.453941,20.491430 
	C65.421371,20.438114 65.549316,20.286718 65.752518,20.079788 
	C65.914307,20.153076 65.927185,20.326904 65.918762,20.761322 
z"/>
<path fill="#C02B1F" opacity="1.000000" stroke="none" 
	d="
M63.670326,8.976572 
	C64.001839,9.726525 64.000130,10.485368 63.985374,11.622957 
	C63.341908,11.545748 62.711487,11.089790 62.039352,10.314911 
	C61.998730,9.828495 61.999821,9.661001 62.002502,9.242161 
	C62.448429,8.989030 62.892765,8.987245 63.670326,8.976572 
z"/>
<path fill="#FAFBFA" opacity="1.000000" stroke="none" 
	d="
M136.331589,47.781147 
	C143.456024,50.005859 149.116928,54.339367 154.285446,60.432613 
	C158.174683,67.949486 161.661606,74.995796 165.136139,82.445663 
	C165.931061,88.880417 165.775803,94.690033 161.855438,99.852364 
	C158.213715,104.647812 153.445694,106.515541 148.715881,104.680359 
	C154.374390,98.928963 154.315552,92.289932 152.554840,85.482780 
	C152.206024,84.134270 150.500870,82.188354 149.444489,82.202957 
	C148.014374,82.222725 146.006744,83.546257 145.292068,84.873352 
	C141.985794,91.012901 141.409134,97.430786 144.120071,103.910233 
	C143.094894,103.740753 142.297028,103.764244 141.864441,103.378296 
	C137.456894,99.446022 134.426437,101.742996 131.135254,105.222412 
	C129.501205,106.949928 126.864563,107.729095 124.807022,108.583084 
	C127.632774,102.985565 128.375839,97.475121 126.425560,91.897949 
	C124.828629,87.331245 120.985054,86.793556 118.288361,90.794403 
	C114.006004,97.147758 113.080940,103.903069 116.915848,111.208786 
	C115.085541,112.061554 113.441658,112.976959 111.807541,112.959862 
	C107.441605,112.914169 103.079865,112.468033 98.401550,112.063202 
	C95.732361,110.544289 93.378075,109.143196 90.983932,107.409912 
	C85.350525,101.341072 82.718910,94.614182 82.871452,86.459679 
	C83.052162,76.799255 88.507317,69.620201 93.454819,62.270096 
	C95.866867,58.686695 99.133720,54.956676 102.902275,53.206894 
	C106.847557,51.375050 112.113640,50.688908 116.331184,51.625034 
	C120.465744,52.542744 124.007309,56.132057 127.858109,58.579964 
	C129.226532,54.708160 128.544113,47.956261 136.331589,47.781147 
M128.477051,61.582897 
	C128.477051,61.582897 128.415833,61.475426 128.477051,61.582897 
z"/>
<path fill="#E2DDD6" opacity="1.000000" stroke="none" 
	d="
M136.291580,47.486225 
	C128.544113,47.956261 129.226532,54.708160 127.858109,58.579964 
	C124.007309,56.132057 120.465744,52.542744 116.331184,51.625034 
	C112.113640,50.688908 106.847557,51.375050 102.902275,53.206894 
	C99.133720,54.956676 95.866867,58.686695 93.454819,62.270096 
	C88.507317,69.620201 83.052162,76.799255 82.871452,86.459679 
	C82.718910,94.614182 85.350525,101.341072 90.622627,107.477028 
	C88.897888,107.550797 87.494606,107.225258 85.963211,106.564156 
	C80.659302,104.661903 77.495705,101.243889 76.797684,95.868797 
	C76.249619,91.648407 76.038849,87.384224 75.836731,82.767113 
	C77.327370,78.258469 78.659515,74.122208 80.208710,69.729721 
	C84.368393,64.780373 87.949417,59.710503 92.346092,55.490398 
	C97.726303,50.326252 104.408691,47.413361 112.047798,46.936394 
	C118.054047,46.561378 122.392090,49.434250 126.607124,54.771061 
	C126.813095,48.392883 129.156006,45.028061 134.928101,45.260002 
	C135.369263,45.903770 135.810410,46.547539 136.291580,47.486225 
z"/>
<path fill="#D29836" opacity="1.000000" stroke="none" 
	d="
M135.066895,43.021362 
	C142.539047,37.431038 150.011215,31.840715 157.791519,26.087633 
	C162.493088,25.975441 166.556778,26.494860 166.967529,32.561100 
	C163.664856,34.718220 160.384308,36.491207 157.017059,38.593895 
	C156.930344,38.923592 156.461166,38.952023 156.227859,38.981110 
	C152.327927,40.882256 148.076492,42.018219 146.653290,46.984421 
	C146.518387,47.628410 146.245865,47.828838 145.973343,48.029266 
	C142.606720,46.677109 139.240082,45.324955 135.475708,43.726852 
	C135.077957,43.480911 135.066895,43.021362 135.066895,43.021362 
M143.621399,42.471252 
	C143.844162,42.528858 144.066925,42.586464 144.289688,42.644070 
	C144.146072,42.502964 144.002457,42.361862 143.621399,42.471252 
z"/>
<path fill="#A36335" opacity="1.000000" stroke="none" 
	d="
M134.648041,43.013741 
	C135.066895,43.021362 135.077957,43.480911 135.100510,43.709236 
	C135.083221,44.156715 135.043396,44.375874 134.965820,44.927521 
	C129.156006,45.028061 126.813095,48.392883 126.607124,54.771061 
	C122.392090,49.434250 118.054047,46.561378 112.047798,46.936394 
	C104.408691,47.413361 97.726303,50.326252 92.346092,55.490398 
	C87.949417,59.710503 84.368393,64.780373 79.993698,69.616028 
	C79.285355,69.562424 79.101418,69.301224 79.009850,68.974968 
	C86.574959,52.021557 110.050888,37.407074 122.643700,47.857944 
	C126.860382,46.092056 130.544785,44.549084 134.648041,43.013741 
z"/>
<path fill="#6D8548" opacity="1.000000" stroke="none" 
	d="
M165.148529,82.042114 
	C161.661606,74.995796 158.174683,67.949486 154.575104,60.565914 
	C155.343689,60.149094 156.224915,60.069530 157.588043,60.351112 
	C159.716385,62.807224 161.362808,64.902191 163.009232,66.997154 
	C163.009232,66.997154 163.000000,67.000389 163.000519,67.346436 
	C163.670807,68.792961 164.340576,69.893433 165.010361,70.993904 
	C165.010361,70.993904 165.000000,71.000000 164.999130,71.394318 
	C166.384048,74.506721 167.769836,77.224823 169.385590,79.926552 
	C169.615585,79.910179 170.069824,79.830620 170.069824,79.830620 
	C170.059921,80.016769 170.050003,80.202911 169.796417,80.778992 
	C169.349686,81.435005 169.146637,81.701080 168.564651,81.960205 
	C167.173325,81.982864 166.160919,82.012489 165.148529,82.042114 
z"/>
<path fill="#C89638" opacity="1.000000" stroke="none" 
	d="
M146.132019,48.324524 
	C146.245865,47.828838 146.518387,47.628410 146.909119,47.199554 
	C149.074097,48.471699 151.120880,49.972267 153.167648,51.472836 
	C152.811462,51.957180 152.455261,52.441525 152.099060,52.925869 
	C150.162933,51.490505 148.226807,50.055145 146.132019,48.324524 
z"/>
<path fill="#73933F" opacity="1.000000" stroke="none" 
	d="
M162.973938,66.649239 
	C161.362808,64.902191 159.716385,62.807224 158.030243,60.353653 
	C157.990524,59.995041 158.436096,59.945362 158.657379,59.918068 
	C160.231979,62.027626 161.585312,64.164474 162.973938,66.649239 
z"/>
<path fill="#C89638" opacity="1.000000" stroke="none" 
	d="
M154.397934,56.605339 
	C154.544128,55.832623 154.846909,55.323605 155.149689,54.814590 
	C155.629181,55.609688 156.108658,56.404781 156.588135,57.199875 
	C155.910263,57.089600 155.232407,56.979317 154.397934,56.605339 
z"/>
<path fill="#73933F" opacity="1.000000" stroke="none" 
	d="
M169.155609,79.942924 
	C167.769836,77.224823 166.384048,74.506721 165.003693,71.390373 
	C166.506241,73.211456 168.003342,75.430794 169.777176,77.852142 
	C170.066544,78.260193 170.079193,78.466232 169.881256,78.999474 
	C169.414749,79.461685 169.243057,79.667099 169.155609,79.942924 
z"/>
<path fill="#29815E" opacity="1.000000" stroke="none" 
	d="
M168.943588,81.967163 
	C169.146637,81.701080 169.349686,81.435005 169.782806,81.058273 
	C170.681549,82.388344 171.350204,83.829079 172.032257,85.625580 
	C171.202179,85.921730 170.358704,85.862091 169.256226,85.497803 
	C168.979324,84.117813 168.961456,83.042488 168.943588,81.967163 
z"/>
<path fill="#6D8548" opacity="1.000000" stroke="none" 
	d="
M170.310165,78.038406 
	C170.442917,77.734047 170.853561,77.415062 171.535141,77.090279 
	C171.400055,77.397583 170.994064,77.710678 170.310165,78.038406 
z"/>
<path fill="#29815E" opacity="1.000000" stroke="none" 
	d="
M169.385590,79.926552 
	C169.243057,79.667099 169.414749,79.461685 169.876801,79.309082 
	C170.082916,79.291481 170.063843,79.563011 170.066833,79.696815 
	C170.069824,79.830620 169.615585,79.910179 169.385590,79.926552 
z"/>
<path fill="#73933F" opacity="1.000000" stroke="none" 
	d="
M165.006668,70.645432 
	C164.340576,69.893433 163.670807,68.792961 163.002167,67.342079 
	C163.669876,68.093437 164.336426,69.195206 165.006668,70.645432 
z"/>
<path fill="#4C466A" opacity="1.000000" stroke="none" 
	d="
M106.043686,154.679657 
	C103.337128,156.894119 100.596825,158.798050 97.174377,161.175949 
	C99.687599,156.252747 101.839531,152.037292 104.002846,147.456451 
	C104.547211,146.895172 105.080193,146.699280 105.776886,146.270599 
	C106.348358,146.007935 106.756104,145.978058 107.469299,145.935272 
	C107.382744,147.704041 106.990730,149.485718 106.523621,151.666504 
	C106.302322,152.833450 106.156128,153.601303 106.043686,154.679657 
z"/>
<path fill="#C4709B" opacity="1.000000" stroke="none" 
	d="
M155.029755,151.359802 
	C155.325760,151.727280 155.367615,152.088425 155.409454,152.449585 
	C155.152451,152.445709 154.895447,152.441833 154.638443,152.437943 
	C154.684174,152.076462 154.729889,151.714981 155.029755,151.359802 
z"/>
<path fill="#AF6D99" opacity="1.000000" stroke="none" 
	d="
M118.457138,148.536575 
	C118.422035,148.480713 118.492241,148.592438 118.457138,148.536575 
z"/>
<path fill="#224656" opacity="1.000000" stroke="none" 
	d="
M121.742569,127.298691 
	C123.081429,127.006073 124.133492,127.003326 125.694527,127.227219 
	C126.409378,127.724487 126.676552,127.903831 127.005020,127.991890 
	C130.137299,128.120270 133.269592,128.248642 136.630005,128.903992 
	C136.801453,129.594452 136.744781,129.757935 136.688110,129.921417 
	C133.441116,129.979126 130.194107,130.036819 126.505829,130.170380 
	C121.853920,129.706680 117.643303,129.167099 113.160919,128.351593 
	C115.744698,127.913307 118.600235,127.750931 121.742569,127.298691 
z"/>
<path fill="#8A6B96" opacity="1.000000" stroke="none" 
	d="
M136.942200,129.880890 
	C136.744781,129.757935 136.801453,129.594452 136.926361,129.180191 
	C136.994598,128.929428 137.473373,129.027786 137.705826,129.102234 
	C137.690948,129.397903 137.443619,129.619125 136.942200,129.880890 
z"/>
<path fill="#145A51" opacity="1.000000" stroke="none" 
	d="
M127.003120,127.741943 
	C126.676552,127.903831 126.409378,127.724487 126.089546,127.237106 
	C126.145477,127.009804 126.315353,126.999237 126.740479,126.990395 
	C126.995728,126.992111 127.001221,127.491997 127.003120,127.741943 
z"/>
<path fill="#276952" opacity="1.000000" stroke="none" 
	d="
M168.564651,81.960197 
	C168.961456,83.042488 168.979324,84.117813 169.005035,85.595734 
	C170.035034,101.125984 156.540115,110.918167 146.941376,108.743896 
	C140.290833,107.237442 136.177277,109.114075 131.159134,113.098480 
	C125.046883,117.951614 117.937592,121.978165 109.262543,120.135231 
	C108.672569,120.009903 107.732796,121.531174 106.993835,122.620529 
	C106.512985,123.232750 105.994026,123.511086 105.199829,123.897743 
	C102.143799,121.031059 99.472031,117.943787 96.554062,115.110031 
	C93.058128,111.714989 89.097725,109.170486 83.418770,109.965843 
	C82.989532,109.957550 83.055290,109.495529 83.419785,109.245583 
	C84.553284,108.296997 85.322304,107.598351 86.091316,106.899712 
	C87.494606,107.225258 88.897888,107.550797 90.662491,107.809219 
	C93.378075,109.143196 95.732361,110.544289 98.533470,112.336304 
	C99.664307,113.453560 100.348312,114.179901 101.054749,115.214851 
	C101.740280,115.627991 102.403366,115.732529 103.470543,115.820953 
	C105.942665,116.097015 108.010712,116.389183 110.260483,117.020767 
	C112.270309,117.141640 114.098419,116.923096 116.238602,116.520363 
	C120.166321,115.190407 123.781960,114.044647 127.742218,112.827774 
	C128.418289,112.438309 128.749756,112.119957 129.283661,111.547806 
	C134.131927,108.371368 137.848816,102.946640 144.620575,105.695862 
	C144.906525,105.811958 145.438019,105.323196 146.160858,105.001175 
	C147.114609,104.885101 147.762589,104.884056 148.410583,104.883011 
	C153.445694,106.515541 158.213715,104.647812 161.855438,99.852364 
	C165.775803,94.690033 165.931061,88.880417 165.136139,82.445663 
	C166.160919,82.012489 167.173325,81.982864 168.564651,81.960197 
z"/>
<path fill="#68813C" opacity="1.000000" stroke="none" 
	d="
M85.963211,106.564156 
	C85.322304,107.598351 84.553284,108.296997 83.462982,109.016281 
	C80.733139,107.521912 78.397247,105.870010 75.890770,104.539474 
	C74.189156,103.636185 72.248207,103.183731 70.836327,102.680183 
	C71.857857,101.100044 73.452950,99.753059 73.497749,98.356346 
	C73.640320,93.911026 73.205849,89.447197 73.022400,84.278748 
	C73.061523,83.399155 73.072601,83.231323 73.083679,83.063499 
	C73.083679,83.063499 73.521866,82.954559 74.023956,82.958252 
	C74.910110,83.021133 75.294182,83.080315 75.678246,83.139496 
	C76.038849,87.384224 76.249619,91.648407 76.797684,95.868797 
	C77.495705,101.243889 80.659302,104.661903 85.963211,106.564156 
z"/>
<path fill="#AC9646" opacity="1.000000" stroke="none" 
	d="
M75.836731,82.767113 
	C75.294182,83.080315 74.910110,83.021133 74.240631,82.894821 
	C75.285767,78.465210 76.616325,74.102722 77.996323,69.377365 
	C78.045753,69.014496 78.527817,68.998100 78.768829,68.986534 
	C79.101418,69.301224 79.285355,69.562424 79.776657,69.872253 
	C78.659515,74.122208 77.327370,78.258469 75.836731,82.767113 
z"/>
<path fill="#AC9646" opacity="1.000000" stroke="none" 
	d="
M43.854500,82.830727 
	C43.419872,83.186256 42.853748,83.307922 42.154156,83.202881 
	C42.588127,82.849731 43.155567,82.723297 43.854500,82.830727 
z"/>
<path fill="#AC9646" opacity="1.000000" stroke="none" 
	d="
M72.847046,83.130409 
	C73.072601,83.231323 73.061523,83.399155 73.021469,83.818382 
	C72.822449,84.049339 72.652420,84.028893 72.228928,83.965256 
	C72.097580,83.602051 72.309227,83.360474 72.847046,83.130409 
z"/>
<path fill="#C02B1F" opacity="1.000000" stroke="none" 
	d="
M62.663658,20.050497 
	C62.998314,20.750399 63.000198,21.500551 62.990601,22.625624 
	C62.763039,22.033945 62.546963,21.067347 62.663658,20.050497 
z"/>
<path fill="#151515" opacity="1.000000" stroke="none" 
	d="
M117.106720,110.846252 
	C113.080940,103.903069 114.006004,97.147758 118.288361,90.794403 
	C120.985054,86.793556 124.828629,87.331245 126.425560,91.897949 
	C128.375839,97.475121 127.632774,102.985565 124.520447,108.734894 
	C122.234680,111.783272 119.914757,112.379234 117.106720,110.846252 
z"/>
<path fill="#171717" opacity="1.000000" stroke="none" 
	d="
M148.715881,104.680359 
	C147.762589,104.884056 147.114609,104.885101 145.918945,104.971558 
	C145.086487,104.675697 144.801712,104.294426 144.516937,103.913155 
	C141.409134,97.430786 141.985794,91.012901 145.292068,84.873352 
	C146.006744,83.546257 148.014374,82.222725 149.444489,82.202957 
	C150.500870,82.188354 152.206024,84.134270 152.554840,85.482780 
	C154.315552,92.289932 154.374390,98.928963 148.715881,104.680359 
z"/>
<path fill="#CEDCD8" opacity="1.000000" stroke="none" 
	d="
M144.120071,103.910233 
	C144.801712,104.294426 145.086487,104.675697 145.613190,105.086586 
	C145.438019,105.323196 144.906525,105.811958 144.620575,105.695862 
	C137.848816,102.946640 134.131927,108.371368 128.946167,111.636978 
	C128.070007,112.286270 127.733803,112.592575 127.397606,112.898888 
	C123.781960,114.044647 120.166321,115.190407 115.822708,116.474594 
	C113.422745,116.635803 111.750748,116.658585 110.078751,116.681351 
	C108.010712,116.389183 105.942665,116.097015 103.255096,115.636124 
	C102.101143,115.280342 101.566727,115.093300 101.032310,114.906250 
	C100.348312,114.179901 99.664307,113.453560 98.848373,112.454124 
	C103.079865,112.468033 107.441605,112.914169 111.807541,112.959862 
	C113.441658,112.976959 115.085541,112.061554 116.915848,111.208786 
	C119.914757,112.379234 122.234680,111.783272 124.394905,109.089111 
	C126.864563,107.729095 129.501205,106.949928 131.135254,105.222412 
	C134.426437,101.742996 137.456894,99.446022 141.864441,103.378296 
	C142.297028,103.764244 143.094894,103.740753 144.120071,103.910233 
z"/>
<path fill="#E2DDD6" opacity="1.000000" stroke="none" 
	d="
M128.446442,61.529160 
	C128.415833,61.475426 128.477051,61.582897 128.446442,61.529160 
z"/>
<path fill="#AD873F" opacity="1.000000" stroke="none" 
	d="
M143.740112,42.346004 
	C144.002457,42.361862 144.146072,42.502964 144.289688,42.644070 
	C144.066925,42.586464 143.844162,42.528858 143.740112,42.346004 
z"/>
<path fill="#266751" opacity="1.000000" stroke="none" 
	d="
M110.260483,117.020767 
	C111.750748,116.658585 113.422745,116.635803 115.510635,116.658783 
	C114.098419,116.923096 112.270309,117.141640 110.260483,117.020767 
z"/>
<path fill="#266751" opacity="1.000000" stroke="none" 
	d="
M101.054749,115.214859 
	C101.566727,115.093300 102.101143,115.280342 102.851013,115.652229 
	C102.403366,115.732529 101.740280,115.627991 101.054749,115.214859 
z"/>
<path fill="#266751" opacity="1.000000" stroke="none" 
	d="
M127.742218,112.827774 
	C127.733803,112.592575 128.070007,112.286270 128.743713,111.890785 
	C128.749756,112.119957 128.418289,112.438309 127.742218,112.827774 
z"/>
</svg>